<svg width="2398" height="1262" viewBox="0 0 2398 1262" fill="none" xmlns="http://www.w3.org/2000/svg">
<path d="M191.935 602.296C41.3684 752.883 41.373 997.903 191.935 1148.49C267.229 1223.78 366.12 1261.42 465.016 1261.42C563.911 1261.42 662.806 1223.78 738.092 1148.49L911.714 974.854L854.887 918.018L681.265 1091.65C621.638 1151.29 543.341 1181.1 465.016 1181.09C386.714 1181.08 308.379 1151.27 248.766 1091.65C129.536 972.409 129.536 778.381 248.766 659.128L508.112 399.772C507.974 395.201 507.882 390.621 507.882 386.036C507.877 346.866 512.918 308.475 522.636 271.579L191.935 602.296Z" fill="url(#paint0_linear)"/>
<path d="M681.262 112.939C608.315 185.887 568.147 282.876 568.147 386.036C568.147 489.196 608.315 586.18 681.262 659.128L1170.58 1148.49C1245.87 1223.78 1344.76 1261.43 1443.66 1261.43C1542.55 1261.43 1641.45 1223.78 1716.73 1148.49C1867.31 997.903 1867.31 752.884 1716.73 602.297L1227.41 112.939C1152.12 37.6435 1053.23 0.000302088 954.334 0.000302088C855.439 0.000302088 756.548 37.6435 681.262 112.939ZM1227.41 1091.65L738.09 602.297C680.331 544.533 648.515 467.729 648.515 386.036C648.515 304.343 680.331 227.539 738.09 169.771C857.334 50.522 1051.34 50.522 1170.58 169.771L1659.9 659.128C1779.15 778.382 1779.15 972.41 1659.9 1091.65C1600.29 1151.28 1521.97 1181.09 1443.66 1181.09C1365.34 1181.09 1287.03 1151.28 1227.41 1091.65" fill="url(#paint1_linear)"/>
<path d="M1659.9 112.939L1486.28 286.575L1543.11 343.406L1716.73 169.771C1835.98 50.5219 2029.99 50.5219 2149.23 169.771C2268.47 289.02 2268.47 483.052 2149.23 602.296L1889.69 861.855C1890.98 904.982 1886.09 948.253 1875 990.218L2206.06 659.128C2356.64 508.546 2356.64 263.526 2206.06 112.939C2130.78 37.6572 2031.87 0.00946719 1932.98 0.000242039C1834.08 -0.00437053 1735.2 37.6388 1659.9 112.939Z" fill="url(#paint2_linear)"/>
<path d="M222.6 764.114H200.666L117.363 636.602V764.114H95.4286V598.643H117.363L200.893 726.724V598.643H222.6V764.114ZM570.57 598.643V711.154C570.495 726.762 565.57 739.528 555.796 749.453C546.098 759.379 532.915 764.947 516.247 766.16L510.451 766.387C492.343 766.387 477.91 761.5 467.151 751.726C456.393 741.953 450.938 728.504 450.786 711.382V598.643H472.379V710.7C472.379 722.671 475.675 731.99 482.266 738.657C488.858 745.249 498.253 748.544 510.451 748.544C522.801 748.544 532.233 745.249 538.749 738.657C545.341 732.065 548.636 722.784 548.636 710.813V598.643H570.57ZM797.734 764.114V598.643H844.443C858.838 598.643 871.566 601.825 882.628 608.19C893.69 614.554 902.213 623.608 908.199 635.351C914.26 647.095 917.329 660.581 917.404 675.81V686.379C917.404 701.987 914.374 715.662 908.312 727.406C902.327 739.149 893.728 748.165 882.515 754.454C871.377 760.742 858.383 763.962 843.533 764.114H797.734ZM819.554 616.6V746.271H842.511C859.33 746.271 872.4 741.044 881.719 730.588C891.114 720.132 895.811 705.245 895.811 685.925V676.265C895.811 657.475 891.379 642.89 882.515 632.51C873.726 622.055 861.225 616.751 845.011 616.6H819.554ZM1270.49 686.72C1270.49 702.934 1267.76 717.102 1262.31 729.224C1256.85 741.271 1249.12 750.476 1239.12 756.841C1229.12 763.205 1217.45 766.387 1204.12 766.387C1191.09 766.387 1179.53 763.205 1169.46 756.841C1159.38 750.401 1151.54 741.271 1145.93 729.452C1140.4 717.556 1137.56 703.805 1137.41 688.198V676.265C1137.41 660.354 1140.17 646.299 1145.7 634.101C1151.23 621.903 1159.04 612.584 1169.12 606.144C1179.27 599.628 1190.86 596.37 1203.89 596.37C1217.15 596.37 1228.82 599.59 1238.89 606.03C1249.05 612.395 1256.85 621.676 1262.31 633.874C1267.76 645.996 1270.49 660.127 1270.49 676.265V686.72ZM1248.78 676.037C1248.78 656.414 1244.84 641.375 1236.96 630.919C1229.08 620.388 1218.06 615.122 1203.89 615.122C1190.1 615.122 1179.23 620.388 1171.27 630.919C1163.39 641.375 1159.34 655.922 1159.11 674.56V686.72C1159.11 705.737 1163.09 720.701 1171.05 731.611C1179.08 742.445 1190.1 747.862 1204.12 747.862C1218.21 747.862 1229.12 742.748 1236.85 732.52C1244.58 722.216 1248.55 707.48 1248.78 688.311V676.037ZM1521.06 671.15H1536.86C1546.79 670.999 1554.59 668.385 1560.27 663.309C1565.95 658.232 1568.8 651.376 1568.8 642.739C1568.8 623.343 1559.14 613.645 1539.82 613.645C1530.72 613.645 1523.45 616.259 1517.99 621.486C1512.62 626.638 1509.93 633.495 1509.93 642.057H1488.9C1488.9 628.949 1493.67 618.077 1503.22 609.44C1512.84 600.727 1525.04 596.37 1539.82 596.37C1555.42 596.37 1567.66 600.5 1576.52 608.758C1585.39 617.016 1589.82 628.495 1589.82 643.193C1589.82 650.391 1587.47 657.361 1582.77 664.104C1578.15 670.847 1571.83 675.886 1563.79 679.219C1572.89 682.098 1579.89 686.872 1584.82 693.539C1589.82 700.206 1592.32 708.351 1592.32 717.973C1592.32 732.823 1587.47 744.605 1577.77 753.318C1568.08 762.03 1555.46 766.387 1539.93 766.387C1524.4 766.387 1511.74 762.182 1501.97 753.772C1492.27 745.362 1487.42 734.263 1487.42 720.473H1508.56C1508.56 729.186 1511.4 736.157 1517.09 741.385C1522.77 746.612 1530.38 749.226 1539.93 749.226C1550.08 749.226 1557.85 746.574 1563.23 741.271C1568.61 735.967 1571.3 728.353 1571.3 718.428C1571.3 708.806 1568.34 701.418 1562.43 696.266C1556.52 691.114 1548 688.463 1536.86 688.311H1521.06V671.15ZM1823.57 681.151L1831.98 598.643H1916.77V618.077H1849.83L1844.83 663.195C1852.93 658.422 1862.14 656.035 1872.44 656.035C1887.52 656.035 1899.49 661.036 1908.36 671.037C1917.22 680.962 1921.65 694.41 1921.65 711.382C1921.65 728.429 1917.03 741.877 1907.79 751.726C1898.62 761.5 1885.78 766.387 1869.26 766.387C1854.64 766.387 1842.71 762.334 1833.46 754.227C1824.22 746.12 1818.95 734.907 1817.66 720.587H1837.55C1838.84 730.058 1842.21 737.217 1847.67 742.066C1853.12 746.84 1860.32 749.226 1869.26 749.226C1879.03 749.226 1886.69 745.893 1892.22 739.225C1897.82 732.558 1900.63 723.352 1900.63 711.609C1900.63 700.547 1897.6 691.683 1891.54 685.015C1885.55 678.272 1877.56 674.901 1867.56 674.901C1858.39 674.901 1851.19 676.909 1845.96 680.924L1840.39 685.47L1823.57 681.151ZM2241.1 693.539C2241.1 718.163 2236.89 736.46 2228.48 748.431C2220.07 760.402 2206.93 766.387 2189.05 766.387C2171.39 766.387 2158.32 760.553 2149.84 748.885C2141.35 737.142 2136.96 719.64 2136.66 696.38V668.309C2136.66 643.989 2140.86 625.919 2149.27 614.099C2157.68 602.28 2170.86 596.37 2188.82 596.37C2206.62 596.37 2219.73 602.091 2228.14 613.531C2236.55 624.896 2240.87 642.473 2241.1 666.264V693.539ZM2220.07 664.786C2220.07 646.981 2217.57 634.026 2212.57 625.919C2207.57 617.736 2199.65 613.645 2188.82 613.645C2178.06 613.645 2170.22 617.698 2165.29 625.805C2160.37 633.912 2157.83 646.375 2157.68 663.195V696.835C2157.68 714.715 2160.26 727.936 2165.41 736.498C2170.64 744.983 2178.52 749.226 2189.05 749.226C2199.43 749.226 2207.12 745.211 2212.12 737.18C2217.19 729.148 2219.85 716.496 2220.07 699.221V664.786Z" fill="white"/>
<defs>
<linearGradient id="paint0_linear" x1="55.4109" y1="887.537" x2="2394.11" y2="276.787" gradientUnits="userSpaceOnUse">
<stop stop-color="#ED1684"/>
<stop offset="0.502212" stop-color="#5A3198"/>
<stop offset="1" stop-color="#3150AA"/>
</linearGradient>
<linearGradient id="paint1_linear" x1="65.6442" y1="926.732" x2="2404.35" y2="315.982" gradientUnits="userSpaceOnUse">
<stop stop-color="#ED1684"/>
<stop offset="0.502212" stop-color="#5A3198"/>
<stop offset="1" stop-color="#3150AA"/>
</linearGradient>
<linearGradient id="paint2_linear" x1="75.9146" y1="966.054" x2="2414.62" y2="355.305" gradientUnits="userSpaceOnUse">
<stop stop-color="#ED1684"/>
<stop offset="0.502212" stop-color="#5A3198"/>
<stop offset="1" stop-color="#3150AA"/>
</linearGradient>
</defs>
</svg>
