<svg width="126" height="126" viewBox="0 0 126 126" fill="none" xmlns="http://www.w3.org/2000/svg">
<path d="M63 126C97.7939 126 126 97.7939 126 63C126 28.2061 97.7939 0 63 0C28.2061 0 0 28.2061 0 63C0 97.7939 28.2061 126 63 126Z" fill="#3D50CE"/>
<path fill-rule="evenodd" clip-rule="evenodd" d="M36.8138 50.6053L58.7915 92.4474H67.3644L36.8138 50.6053Z" fill="white"/>
<path fill-rule="evenodd" clip-rule="evenodd" d="M24.5 32.2895L75.4696 92.4474H92.9271L24.5 32.2895Z" fill="white"/>
<path d="M51.6215 44.7632C55.237 44.7632 58.168 41.7941 58.168 38.1316C58.168 34.4691 55.237 31.5 51.6215 31.5C48.0059 31.5 45.0749 34.4691 45.0749 38.1316C45.0749 41.7941 48.0059 44.7632 51.6215 44.7632Z" fill="white"/>
<path fill-rule="evenodd" clip-rule="evenodd" d="M41.6458 69.3947L45.0749 64.8158L46.0101 65.6053L41.6458 69.3947Z" fill="white"/>
<path fill-rule="evenodd" clip-rule="evenodd" d="M52.0891 56.921C63.8313 45.9737 75.002 40.5 85.6012 40.5C96.2004 40.5 101.5 46.1842 101.5 57.5526C100.928 67.8684 96.668 78.2368 88.7186 88.6579C88.7186 88.6579 96.5122 77.2895 96.5122 67.1053C96.5122 56.921 88.8593 55.1842 84.8219 55.1842C80.7844 55.1842 70.9494 57.3947 62.5324 65.4474C56.9211 70.8158 55.6481 70.0789 58.7136 63.2368C70.1169 54.2895 79.9108 49.8158 88.0951 49.8158C89.0329 49.8158 90.3318 49.921 91.9919 50.1316C90.7377 48.5526 88.0879 47.7632 84.0425 47.7632C77.9744 47.7632 68.1437 49.8158 54.8947 58.9737" fill="white"/>
<path fill-rule="evenodd" clip-rule="evenodd" d="M49.1275 72.8684C42.6849 80.5526 38.5803 87.0789 36.8138 92.4473C40.0351 92.4473 42.3731 92.4473 43.8279 92.4473C44.6592 88.3421 47.2571 83.0263 51.6215 76.5" fill="white"/>
</svg>
