<?xml version="1.0" encoding="utf-8"?>
<!-- Generator: Adobe Illustrator 23.0.3, SVG Export Plug-In . SVG Version: 6.00 Build 0)  -->
<svg version="1.1" id="レイヤー_1" xmlns="http://www.w3.org/2000/svg" xmlns:xlink="http://www.w3.org/1999/xlink" x="0px"
	 y="0px" viewBox="0 0 36 36" style="enable-background:new 0 0 36 36;" xml:space="preserve">
<style type="text/css">
	.st0{fill:#00265C;}
	.st1{fill-rule:evenodd;clip-rule:evenodd;fill:#FFFFFF;}
</style>
<g id="Symbols">
	<g>
		<g id="Group">
			<g>
				<circle id="Circle" class="st0" cx="18" cy="18" r="18"/>
			</g>
		</g>
	</g>
</g>
<path class="st1" d="M10.9,25c0-4.8,0-11.5,0-15.4l0.6-0.4L13.7,8l2.6-1.5L19,8l2.7,1.6v3v2.5v2l3.4,2v4.1V25l2.1,0v2.2l-18.5,0V25
	H10.9L10.9,25z M23,25v-1.8v-0.6v-2.2l-2.5-1.4l-0.9-0.5v-2.5v-1.9v-1v-0.4v-1.7l-1.6-0.9L16.3,9l-0.1,0.1l1.3,0.8v3v2.5v2l3.4,2
	v4.1V25L23,25L23,25z M14,10.3l-0.9,0.5c0,16.7,0,0.4,0,14.1l5.6,0v-1.6v-0.6v-2.2l-2.5-1.4l-0.9-0.5V16v-1.9v-1v-0.4v-1.7L14,10.3z
	"/>
</svg>
