<svg xmlns="http://www.w3.org/2000/svg" xmlns:xlink="http://www.w3.org/1999/xlink" viewBox="0 0 36 36"><defs><style>.cls-1{fill:url(#名称未設定グラデーション_2);}.cls-2{fill:#fff;fill-rule:evenodd;}</style><linearGradient id="名称未設定グラデーション_2" x1="-645.69" y1="399.03" x2="-644.69" y2="398.03" gradientTransform="matrix(36, 0, 0, -36, 23245, 14365)" gradientUnits="userSpaceOnUse"><stop offset="0" stop-color="#f9c521"/><stop offset="0.5" stop-color="#e83359"/><stop offset="1" stop-color="#8f3d96"/></linearGradient></defs><title>アセット 1</title><g id="レイヤー_2" data-name="レイヤー 2"><g id="レイヤー_1-2" data-name="レイヤー 1"><g id="Design"><g id="xGT"><g id="CurrentInvest"><g id="Group-Copy"><circle id="Circle" class="cls-1" cx="18" cy="18" r="18"/><path id="Combined-Shape" class="cls-2" d="M13.63,20.81,9,17.9l4.69-3L9,12.07,13.69,9l6.65,4.19q.38,0,1.41-1c.74-.89,1.21-1.06,1.4-.51.28.82-1.12,1.23-2.25,1.94s-1.22,1-.94,1.54c.32.27.82.13,1.5-.41l3.1-2.66c1.06-1,1.78-1.19,2.15-.72.56.72.38,1.33-1.22,2.05a63.16,63.16,0,0,0-7,4.5L23.15,21V26.8L13.87,21v6L9,23.77Z"/></g></g></g></g></g></g></svg>