<svg width="154" height="153" viewBox="0 0 154 153" fill="none" xmlns="http://www.w3.org/2000/svg">
<path opacity="0.4" d="M76.825 126.81C104.58 126.81 127.081 104.31 127.081 76.5546C127.081 48.7992 104.58 26.299 76.825 26.299H76.7397C48.9844 26.299 26.4842 48.7992 26.4842 76.5546C26.4842 104.31 48.9844 126.81 76.7397 126.81H76.825Z" stroke="#008AFF"/>
<path opacity="0.2" d="M76.8364 139.533C111.618 139.533 139.815 111.337 139.815 76.5546C139.815 41.7725 111.618 13.5761 76.8364 13.5761H76.7308C41.9488 13.5761 13.7524 41.7725 13.7524 76.5546C13.7524 111.337 41.9488 139.533 76.7308 139.533H76.8364Z" stroke="#008AFF"/>
<path opacity="0.1" d="M76.8466 152.256C118.655 152.256 152.548 118.363 152.548 76.5546C152.548 34.7459 118.655 0.85321 76.8466 0.85321H76.7194C34.9106 0.85321 1.01797 34.7459 1.01797 76.5546C1.01797 118.363 34.9106 152.256 76.7194 152.256H76.8466Z" stroke="#008AFF"/>
<g opacity="0.4" filter="url(#filter0_f)">
<path d="M77.8467 128.578C107.514 128.578 131.564 111.021 131.564 89.3639C131.564 67.7067 107.514 50.1501 77.8467 50.1501C48.1794 50.1501 24.1293 67.7067 24.1293 89.3639C24.1293 111.021 48.1794 128.578 77.8467 128.578Z" fill="#4496FF"/>
</g>
<path d="M132.042 76.6495C132.042 46.4343 107.548 21.9401 77.3325 21.9401C47.1173 21.9401 22.623 46.4343 22.623 76.6495V76.7407C22.623 106.956 47.1173 131.45 77.3325 131.45C107.548 131.45 132.042 106.956 132.042 76.7407V76.6495Z" fill="white"/>
<path d="M131.13 76.6495C131.13 46.9379 107.044 22.8519 77.3323 22.8519C47.6208 22.8519 23.5348 46.9379 23.5348 76.6495V76.7407C23.5348 106.452 47.6208 130.538 77.3323 130.538C107.044 130.538 131.13 106.452 131.13 76.7407V76.6495Z" stroke="#008AFF" stroke-opacity="0.55"/>
<path d="M77 120C100.748 120 120 100.748 120 77C120 53.2518 100.748 34 77 34C53.2518 34 34 53.2518 34 77C34 100.748 53.2518 120 77 120Z" fill="#00265C"/>
<path fill-rule="evenodd" clip-rule="evenodd" d="M60.0389 93.7222C60.0389 82.2555 60.0389 66.25 60.0389 56.9333L61.4722 55.9778L66.7278 53.1111L72.9389 49.5278L79.3889 53.1111L85.8389 56.9333V64.1V70.0722V74.85L93.9611 79.6278V89.4222V93.7222H98.9778V98.9778H54.7834V93.7222H60.0389ZM88.9445 93.7222V89.4222V87.9889V82.7333L82.9722 79.3889L80.8222 78.1944V72.2222V67.6833V65.2944V64.3389V60.2778L77 58.1278L72.9389 55.5L72.7 55.7389L75.8056 57.65V64.8167V70.7889V75.5667L83.9278 80.3444V90.1389V93.7222H88.9445ZM67.4445 58.6055L65.2945 59.8C65.2945 99.6944 65.2945 60.7555 65.2945 93.4833H78.6722V89.6611V88.2278V82.9722L72.7 79.6278L70.55 78.4333V72.2222V67.6833V65.2944V64.3389V60.2778L67.4445 58.6055Z" fill="white"/>
<defs>
<filter id="filter0_f" x="13.1913" y="39.2121" width="129.311" height="100.304" filterUnits="userSpaceOnUse" color-interpolation-filters="sRGB">
<feFlood flood-opacity="0" result="BackgroundImageFix"/>
<feBlend mode="normal" in="SourceGraphic" in2="BackgroundImageFix" result="shape"/>
<feGaussianBlur stdDeviation="5.469" result="effect1_foregroundBlur"/>
</filter>
</defs>
</svg>
