<svg xmlns="http://www.w3.org/2000/svg" xmlns:xlink="http://www.w3.org/1999/xlink" viewBox="0 0 392.2 78.1"><style><![CDATA[.B{clip-path:url(#E)}]]></style><defs><path id="A" d="M0 0h392.2v78.1H0z"/><path id="B" d="M135.4 40.2c3.9-1.1 7.2-1.6 9.9-1.6 4.6 0 8.3 1.4 11 4.1s4.1 7.2 4.1 13.3c0 6.9-1.5 12.2-4.5 15.8s-7.8 5.5-14.4 5.5c-2.8 0-5.8-.3-8.9-.8s-5.5-1.1-7.2-1.7V25.7h10.1v14.5zm0 28.6c1.6.3 3.1.5 4.5.5 3.8 0 6.4-1 7.8-3.1 1.5-2.1 2.2-4.9 2.2-8.6 0-7.4-2.7-11.1-8-11.1-2.4 0-4.6.4-6.6 1.3v21z"/></defs><clipPath id="C"><use xlink:href="#A"/></clipPath><g clip-path="url(#C)"><defs><path id="D" d="M0 0h392.2v78.1H0z"/></defs><clipPath id="E"><use xlink:href="#D"/></clipPath><path fill="#187ab0" d="M94.5 37.7c6.8-4.6 7-13.4 6.3-18.2C98.2.9 78.2 0 78.2 0H36.3v17.8h11.4V7.1h10.7v10.7h19.3c3.2 0 5.8 2.6 5.8 5.8s-2.6 5.8-5.8 5.8h-30v12.1H36.3V78h41.3c24.5-1.1 25.5-20.6 25.5-20.6 1.1-12.8-8.6-19.7-8.6-19.7m-18.4 23H54.6v-14h21.5c3.9 0 7 3.2 7 7s-3.1 7-7 7" class="B"/><path fill="#81b3bc" d="M28.4 22.3H43v14.6H28.4z" class="B"/><path fill="#ebbb94" d="M16.2 11.6h10.7v10.7H16.2z" class="B"/><g opacity=".7" class="B"><defs><path id="F" d="M11.3 27.6h7.4V35h-7.4z"/></defs><clipPath id="G"><use xlink:href="#F"/></clipPath><path clip-path="url(#G)" fill="#e6cc3f" d="M11.3 27.6h7.4V35h-7.4z"/></g><g opacity=".7" class="B"><defs><path id="H" d="M0 16.9h6.3v6.3H0z"/></defs><clipPath id="I"><use xlink:href="#H"/></clipPath><path clip-path="url(#I)" fill="#ce876c" d="M0 16.9h6.3v6.3H0z"/></g><g fill="#545455"><use xlink:href="#B" class="B"/><path d="M185.7 75.7c-2.5 1.1-4.9 1.6-7.5 1.6-2.1 0-3.9-.3-5.5-.8-1.5-.5-2.7-1.1-3.4-1.8-.8-.7-1.4-1.7-1.8-2.9-.4-1.3-.7-2.4-.7-3.3-.1-.9-.1-2.2-.1-3.7v-39h10.4v39.6c0 1.4.2 2.4.6 3s1.2.9 2.3.9c1.7 0 3.3-.2 4.6-.5l1.1 6.9zm36.9-1.8c-5.9 2.1-12.1 3.1-18.4 3.1-4.3 0-7.9-1.1-10.7-3.2s-4.2-5.5-4.2-10.3V39.3h10.1v23.5c0 2.4.6 4.1 1.8 5s2.9 1.5 5 1.6c2.4 0 4.5-.3 6.4-.8V39.3h10.1v34.6zm15.9-14.7v.9c0 3.1.9 5.5 2.8 7s4.4 2.3 7.6 2.3c4 0 7.6-.5 10.6-1.5l.8 7.5c-4.5 1.3-8.8 2-12.7 2-5.8 0-10.4-1.6-13.8-4.8s-5.2-8.4-5.2-15.7c0-5.3 1.4-9.6 4.3-13.1s7.3-5.2 13.2-5.2c5.3 0 9.2 1.3 11.6 3.8 2.5 2.6 3.7 6 3.7 10.3 0 1.9-.3 4.1-.8 6.4h-22.1zm12.8-11.3c-1.1-1.4-2.7-2.1-4.9-2.1-1.5 0-2.8.3-3.8.8-1.1.6-1.8 1.3-2.4 2.1-.5.9-.9 1.7-1.1 2.4s-.3 1.5-.3 2.1H253c0-2.1-.6-4-1.7-5.3" class="B"/></g><g fill="#187ab0"><use xlink:href="#B" x="142.2" class="B"/><path d="M317.3 59.2v.9c0 3.1.9 5.5 2.8 7s4.4 2.3 7.6 2.3c4 0 7.6-.5 10.6-1.5l.8 7.5c-4.5 1.3-8.8 2-12.7 2-5.8 0-10.4-1.6-13.8-4.8s-5.2-8.4-5.2-15.7c0-5.3 1.4-9.6 4.3-13.1s7.3-5.2 13.2-5.2c5.3 0 9.2 1.3 11.6 3.8 2.5 2.6 3.7 6 3.7 10.3 0 1.9-.3 4.1-.8 6.4h-22.1zm12.8-11.3c-1.1-1.4-2.7-2.1-4.9-2.1-1.5 0-2.8.3-3.8.8-1.1.6-1.8 1.3-2.4 2.1-.5.9-.9 1.7-1.1 2.4s-.3 1.5-.3 2.1h14.2c0-2.1-.6-4-1.7-5.3m35.3 27.8c-2.5 1.1-4.9 1.6-7.5 1.6-2.1 0-3.9-.3-5.5-.8-1.5-.5-2.7-1.1-3.4-1.8-.8-.7-1.4-1.7-1.8-2.9s-.6-2.4-.7-3.3-.1-2.2-.1-3.7v-39h10.4v39.6c0 1.4.2 2.4.6 3s1.2.9 2.3.9c1.7 0 3.3-.2 4.6-.5l1.1 6.9zm5.9-29.4h-6.5v-6.9h6.7v-8.5l10.2-.9v9.3h10.6l-.6 7h-10.1v19.1c0 1.4.2 2.4.7 3 .4.6 1.3.9 2.5.9 1.6 0 3.3-.2 5.1-.7l1.1 7.2c-2.4 1-5.1 1.5-8.2 1.5-1.6 0-3-.1-4.2-.4s-2.2-.6-3-1a5.51 5.51 0 0 1-2-1.7c-.6-.7-1-1.4-1.2-2-.3-.6-.5-1.4-.6-2.5l-.3-2.5V46.3z" class="B"/></g></g></svg>