<svg width="50" height="50" viewBox="0 0 50 50" fill="none" xmlns="http://www.w3.org/2000/svg">
<path fill-rule="evenodd" clip-rule="evenodd" d="M25 6.27934C14.6714 6.27934 6.22067 14.6714 6.22067 25.0587H18.7207L23.1808 16.0798C24.1784 14.1432 25.7044 14.0845 26.702 16.0798L31.1619 25.0587H43.662C43.7794 14.6714 35.3873 6.27934 25 6.27934ZM0 25C0 11.2089 11.2089 0 25 0C38.791 0 50 11.2089 50 25C50 38.7911 38.791 50 25 50C11.2089 50 0 38.7911 0 25ZM18.7793 25L23.2394 33.9789C24.1784 35.9155 25.8215 35.9155 26.7606 33.9789L31.2207 25H18.7793Z" fill="#4E01CF"/>
</svg>
