<svg width="278" height="72" viewBox="0 0 278 72" fill="none" xmlns="http://www.w3.org/2000/svg">
<g clip-path="url(#clip0)">
<path d="M100.74 35.8C101.553 35.9733 102.207 36.38 102.7 37.02C103.193 37.6467 103.44 38.3667 103.44 39.18C103.44 40.3533 103.027 41.2867 102.2 41.98C101.387 42.66 100.247 43 98.78 43H92.24V28.96H98.56C99.9867 28.96 101.1 29.2867 101.9 29.94C102.713 30.5933 103.12 31.48 103.12 32.6C103.12 33.4267 102.9 34.1133 102.46 34.66C102.033 35.2067 101.46 35.5867 100.74 35.8ZM95.66 34.64H97.9C98.46 34.64 98.8867 34.52 99.18 34.28C99.4867 34.0267 99.64 33.66 99.64 33.18C99.64 32.7 99.4867 32.3333 99.18 32.08C98.8867 31.8267 98.46 31.7 97.9 31.7H95.66V34.64ZM98.18 40.24C98.7533 40.24 99.1933 40.1133 99.5 39.86C99.82 39.5933 99.98 39.2133 99.98 38.72C99.98 38.2267 99.8133 37.84 99.48 37.56C99.16 37.28 98.7133 37.14 98.14 37.14H95.66V40.24H98.18ZM117.064 43.14C115.744 43.14 114.53 42.8333 113.424 42.22C112.33 41.6067 111.457 40.7533 110.804 39.66C110.164 38.5533 109.844 37.3133 109.844 35.94C109.844 34.5667 110.164 33.3333 110.804 32.24C111.457 31.1467 112.33 30.2933 113.424 29.68C114.53 29.0667 115.744 28.76 117.064 28.76C118.384 28.76 119.59 29.0667 120.684 29.68C121.79 30.2933 122.657 31.1467 123.284 32.24C123.924 33.3333 124.244 34.5667 124.244 35.94C124.244 37.3133 123.924 38.5533 123.284 39.66C122.644 40.7533 121.777 41.6067 120.684 42.22C119.59 42.8333 118.384 43.14 117.064 43.14ZM117.064 40.02C118.184 40.02 119.077 39.6467 119.744 38.9C120.424 38.1533 120.764 37.1667 120.764 35.94C120.764 34.7 120.424 33.7133 119.744 32.98C119.077 32.2333 118.184 31.86 117.064 31.86C115.93 31.86 115.024 32.2267 114.344 32.96C113.677 33.6933 113.344 34.6867 113.344 35.94C113.344 37.18 113.677 38.1733 114.344 38.92C115.024 39.6533 115.93 40.02 117.064 40.02ZM137.786 43.14C136.466 43.14 135.253 42.8333 134.146 42.22C133.053 41.6067 132.18 40.7533 131.526 39.66C130.886 38.5533 130.566 37.3133 130.566 35.94C130.566 34.5667 130.886 33.3333 131.526 32.24C132.18 31.1467 133.053 30.2933 134.146 29.68C135.253 29.0667 136.466 28.76 137.786 28.76C139.106 28.76 140.313 29.0667 141.406 29.68C142.513 30.2933 143.38 31.1467 144.006 32.24C144.646 33.3333 144.966 34.5667 144.966 35.94C144.966 37.3133 144.646 38.5533 144.006 39.66C143.366 40.7533 142.5 41.6067 141.406 42.22C140.313 42.8333 139.106 43.14 137.786 43.14ZM137.786 40.02C138.906 40.02 139.8 39.6467 140.466 38.9C141.146 38.1533 141.486 37.1667 141.486 35.94C141.486 34.7 141.146 33.7133 140.466 32.98C139.8 32.2333 138.906 31.86 137.786 31.86C136.653 31.86 135.746 32.2267 135.066 32.96C134.4 33.6933 134.066 34.6867 134.066 35.94C134.066 37.18 134.4 38.1733 135.066 38.92C135.746 39.6533 136.653 40.02 137.786 40.02ZM160.009 43L155.289 36.8V43H151.869V28.96H155.289V35.12L159.969 28.96H163.989L158.549 35.84L164.189 43H160.009ZM186.714 28.96V43H183.294V34.58L180.154 43H177.394L174.234 34.56V43H170.814V28.96H174.854L178.794 38.68L182.694 28.96H186.714ZM202.914 40.52H197.674L196.834 43H193.254L198.334 28.96H202.294L207.374 43H203.754L202.914 40.52ZM202.034 37.88L200.294 32.74L198.574 37.88H202.034ZM221.08 43L218.16 37.7H217.34V43H213.92V28.96H219.66C220.766 28.96 221.706 29.1533 222.48 29.54C223.266 29.9267 223.853 30.46 224.24 31.14C224.626 31.8067 224.82 32.5533 224.82 33.38C224.82 34.3133 224.553 35.1467 224.02 35.88C223.5 36.6133 222.726 37.1333 221.7 37.44L224.94 43H221.08ZM217.34 35.28H219.46C220.086 35.28 220.553 35.1267 220.86 34.82C221.18 34.5133 221.34 34.08 221.34 33.52C221.34 32.9867 221.18 32.5667 220.86 32.26C220.553 31.9533 220.086 31.8 219.46 31.8H217.34V35.28ZM240.107 43L235.387 36.8V43H231.967V28.96H235.387V35.12L240.067 28.96H244.087L238.647 35.84L244.287 43H240.107ZM259.512 43L256.652 38.7L254.132 43H250.252L254.752 35.86L250.152 28.96H254.132L256.952 33.2L259.432 28.96H263.312L258.852 36.04L263.492 43H259.512Z" fill="#111029"/>
<path fill-rule="evenodd" clip-rule="evenodd" d="M37 16.2793C26.6714 16.2793 18.2207 24.6714 18.2207 35.0587H30.7207L35.1808 26.0798C36.1784 24.1432 37.7044 24.0845 38.702 26.0798L43.1619 35.0587H55.662C55.7794 24.6714 47.3873 16.2793 37 16.2793ZM12 35C12 21.2089 23.2089 10 37 10C50.791 10 62 21.2089 62 35C62 48.7911 50.791 60 37 60C23.2089 60 12 48.7911 12 35ZM30.7793 35L35.2394 43.9789C36.1784 45.9155 37.8215 45.9155 38.7606 43.9789L43.2207 35H30.7793Z" fill="#4E01CF"/>
</g>
<defs>
<clipPath id="clip0">
<rect width="278" height="72" fill="white"/>
</clipPath>
</defs>
</svg>
