<svg width="253" height="253" viewBox="0 0 253 253" fill="none" xmlns="http://www.w3.org/2000/svg">
<path fill-rule="evenodd" clip-rule="evenodd" d="M126.5 31.7734C74.2371 31.7734 31.4766 74.2371 31.4766 126.797H94.7265L117.295 81.3639C122.343 71.5645 130.064 71.2676 135.112 81.3639L157.679 126.797H220.93C221.524 74.2371 179.06 31.7734 126.5 31.7734ZM0 126.5C0 56.7172 56.7172 0 126.5 0C196.282 0 253 56.7172 253 126.5C253 196.283 196.282 253 126.5 253C56.7172 253 0 196.283 0 126.5ZM95.0234 126.5L117.592 171.933C122.343 181.733 130.657 181.733 135.408 171.933L157.977 126.5H95.0234Z" fill="white"/>
</svg>
