<svg width="154" height="156" viewBox="0 0 154 156" fill="none" xmlns="http://www.w3.org/2000/svg">
<path opacity="0.4" d="M77.2546 126.535C105.01 126.535 127.51 104.035 127.51 76.2795C127.51 48.5241 105.01 26.0239 77.2546 26.0239H77.1693C49.414 26.0239 26.9138 48.5241 26.9138 76.2795C26.9138 104.035 49.414 126.535 77.1693 126.535H77.2546Z" stroke="#7DA0FF"/>
<path opacity="0.2" d="M77.266 139.258C112.048 139.258 140.245 111.062 140.245 76.2795C140.245 41.4974 112.048 13.301 77.266 13.301H77.1604C42.3784 13.301 14.182 41.4974 14.182 76.2795C14.182 111.062 42.3784 139.258 77.1604 139.258H77.266Z" stroke="#7DA0FF"/>
<path opacity="0.2" d="M77.2762 151.981C119.085 151.981 152.978 118.088 152.978 76.2794C152.978 34.4707 119.085 0.578064 77.2762 0.578064H77.149C35.3403 0.578064 1.44763 34.4707 1.44763 76.2794C1.44763 118.088 35.3403 151.981 77.149 151.981H77.2762Z" stroke="#7DA0FF"/>
<g filter="url(#filter0_f)">
<g filter="url(#filter1_d)">
<path d="M77.9813 130.315C95.6142 130.315 109.908 116.009 109.908 98.3605C109.908 80.7126 95.6142 66.4061 77.9813 66.4061C60.3485 66.4061 46.0542 80.7126 46.0542 98.3605C46.0542 116.009 60.3485 130.315 77.9813 130.315Z" fill="black"/>
</g>
<path d="M77.9813 130.315C95.6142 130.315 109.908 116.009 109.908 98.3605C109.908 80.7126 95.6142 66.4061 77.9813 66.4061C60.3485 66.4061 46.0542 80.7126 46.0542 98.3605C46.0542 116.009 60.3485 130.315 77.9813 130.315Z" fill="#A8A8FF"/>
</g>
<path d="M77.1147 130.269C107.342 130.269 131.847 105.765 131.847 75.5372C131.847 45.3095 107.342 20.805 77.1147 20.805H77.0235C46.7958 20.805 22.2913 45.3095 22.2913 75.5372C22.2913 105.765 46.7958 130.269 77.0235 130.269H77.1147Z" fill="white"/>
<path d="M77.1147 129.357C106.839 129.357 130.935 105.261 130.935 75.5372C130.935 45.8133 106.839 21.7173 77.1147 21.7173H77.0235C47.2996 21.7173 23.2035 45.8133 23.2035 75.5372C23.2035 105.261 47.2996 129.357 77.0235 129.357H77.1147Z" stroke="#7DA0FF"/>
<path d="M77.1075 121.147C102.297 121.147 122.718 100.727 122.718 75.5372C122.718 50.3474 102.297 29.9271 77.1075 29.9271H77.0308C51.841 29.9271 31.4207 50.3474 31.4207 75.5372C31.4207 100.727 51.841 121.147 77.0308 121.147H77.1075Z" fill="url(#paint0_radial)"/>
<g clip-path="url(#clip0)">
<path d="M77 103C92.4639 103 105 90.464 105 75C105 59.536 92.4639 47 77 47C61.536 47 49 59.536 49 75C49 90.464 61.536 103 77 103Z" fill="#977CD9"/>
<path d="M84.6533 80.0555L89.3199 85.3133C87.8232 86.7824 86.0433 87.9316 84.0885 88.691C82.1336 89.4505 80.0447 89.8044 77.9488 89.7311C66.8422 89.7311 62.5022 82.7311 62.3933 75.0467C62.3933 67.7667 67.2466 60.0355 77.9488 60.0355C79.9887 60.0137 82.0118 60.4049 83.8965 61.1855C85.7812 61.9661 87.4885 63.12 88.9155 64.5778L83.9999 69.4311C83.2123 68.6336 82.2717 68.0035 81.2346 67.5785C80.1974 67.1535 79.0851 66.9424 77.9644 66.9578C72.5044 66.9578 70.3733 71.4067 70.4044 75.0933C70.4355 78.78 72.3955 82.8711 77.9644 82.8711C80.4718 82.8216 82.8652 81.8141 84.6533 80.0555Z" fill="white"/>
</g>
<defs>
<filter id="filter0_f" x="21.1882" y="41.5401" width="113.586" height="113.641" filterUnits="userSpaceOnUse" color-interpolation-filters="sRGB">
<feFlood flood-opacity="0" result="BackgroundImageFix"/>
<feBlend mode="normal" in="SourceGraphic" in2="BackgroundImageFix" result="shape"/>
<feGaussianBlur stdDeviation="12.433" result="effect1_foregroundBlur"/>
</filter>
<filter id="filter1_d" x="39.0542" y="63.4061" width="83.8542" height="83.909" filterUnits="userSpaceOnUse" color-interpolation-filters="sRGB">
<feFlood flood-opacity="0" result="BackgroundImageFix"/>
<feColorMatrix in="SourceAlpha" type="matrix" values="0 0 0 0 0 0 0 0 0 0 0 0 0 0 0 0 0 0 127 0"/>
<feOffset dx="3" dy="7"/>
<feGaussianBlur stdDeviation="5"/>
<feColorMatrix type="matrix" values="0 0 0 0 0.745098 0 0 0 0 0.803585 0 0 0 0 1 0 0 0 0.68767 0"/>
<feBlend mode="normal" in2="BackgroundImageFix" result="effect1_dropShadow"/>
<feBlend mode="normal" in="SourceGraphic" in2="effect1_dropShadow" result="shape"/>
</filter>
<radialGradient id="paint0_radial" cx="0" cy="0" r="1" gradientUnits="userSpaceOnUse" gradientTransform="translate(9.7457 54.8356) rotate(78.465) scale(67.1086 125.544)">
<stop stop-color="#A8CEFF"/>
<stop offset="1" stop-color="#A8A8FF"/>
</radialGradient>
<clipPath id="clip0">
<rect width="56" height="56" fill="white" transform="translate(49 47)"/>
</clipPath>
</defs>
</svg>
