<svg width="423" height="67" viewBox="0 0 423 67" fill="none" xmlns="http://www.w3.org/2000/svg">
<path d="M93.5914 2.72414C96.6874 44.6251 69.7309 64.4297 45.5651 66.5415C23.0981 68.5048 1.95007 54.7112 0.0947794 33.5182C-1.43564 16.0093 9.39473 8.55523 17.904 7.81217C26.656 7.04564 34.0106 13.0762 34.6486 20.3778C35.2631 27.3977 30.8793 30.5929 27.8302 30.8589C25.4191 31.07 22.3857 29.6074 22.1117 26.467C21.8769 23.7685 22.9024 23.4008 22.6519 20.5342C22.2056 15.4305 17.7514 14.8361 15.3129 15.0473C12.3616 15.3054 7.00711 18.7469 7.75863 27.3195C8.51405 35.9664 16.812 42.7987 27.6893 41.8484C39.4278 40.8237 47.6004 31.6919 48.215 18.8838C48.2094 18.2054 48.3523 17.534 48.6338 16.9166L48.6377 16.901C48.7642 16.6327 48.9121 16.3751 49.08 16.1306C49.3305 15.7551 49.6514 15.3406 50.0663 14.8869C50.0703 14.8752 50.0703 14.8752 50.0781 14.8752C50.3795 14.5349 50.7435 14.1673 51.1545 13.7723C56.282 8.93849 74.7488 -2.46166 92.2136 1.14806C92.5827 1.22712 92.9162 1.42332 93.1646 1.70737C93.4129 1.99142 93.5626 2.34809 93.5914 2.72414" fill="url(#paint0_linear)"/>
<path d="M138.549 20.679H130.564C130.411 20.679 130.286 20.8033 130.286 20.9567V60.7966C130.286 60.9499 130.411 61.0743 130.564 61.0743H138.549C138.703 61.0743 138.827 60.9499 138.827 60.7966V20.9567C138.827 20.8033 138.703 20.679 138.549 20.679Z" fill="#11293B"/>
<path d="M252.231 6.41214V12.693C252.229 12.7642 252.199 12.8319 252.148 12.8815C252.097 12.9312 252.028 12.9589 251.957 12.9589H235.768C235.696 12.9579 235.626 12.9852 235.574 13.0349C235.522 13.0847 235.492 13.1529 235.49 13.2249V60.82C235.489 60.856 235.481 60.8914 235.466 60.9242C235.451 60.957 235.43 60.9866 235.404 61.0113C235.378 61.036 235.347 61.0553 235.314 61.0681C235.28 61.0809 235.244 61.087 235.208 61.0859H226.863C226.792 61.087 226.723 61.0603 226.671 61.0113C226.619 60.9624 226.588 60.8951 226.585 60.8239V13.2249C226.583 13.1529 226.553 13.0847 226.501 13.0349C226.449 12.9852 226.38 12.9579 226.308 12.9589H208.659C208.587 12.9589 208.519 12.9312 208.468 12.8815C208.417 12.8319 208.387 12.7642 208.385 12.693V6.41214C208.387 6.3409 208.417 6.27326 208.468 6.2236C208.519 6.17394 208.587 6.14618 208.659 6.14621H251.929C252.008 6.1423 252.086 6.16576 252.141 6.2166C252.169 6.24097 252.191 6.271 252.207 6.30471C252.222 6.33842 252.23 6.37504 252.231 6.41214V6.41214ZM210.886 35.3134L210.972 35.329V60.82C210.97 60.8912 210.94 60.9589 210.889 61.0085C210.838 61.0582 210.769 61.086 210.698 61.0859H202.905C202.869 61.087 202.833 61.0809 202.8 61.0681C202.766 61.0553 202.735 61.036 202.709 61.0113C202.683 60.9866 202.662 60.957 202.647 60.9242C202.632 60.8914 202.624 60.856 202.623 60.82V41.2696C202.623 40.4405 202.639 39.6075 202.639 38.7901C202.639 38.3678 202.639 37.961 202.623 37.5504C202.623 36.3654 202.545 35.1804 202.388 33.9993C201.801 29.7521 200.067 26.6704 193.903 26.7525C192.119 26.81 190.373 27.2813 188.802 28.1291C186.975 29.1929 184.947 30.6712 183.808 32.7322C183.989 34.091 184.082 35.46 184.086 36.8308V36.8738C184.086 37.1006 184.102 37.3275 184.102 37.5387V61.3793C184.1 61.4512 184.069 61.5194 184.017 61.5692C183.965 61.6189 183.896 61.6462 183.824 61.6452H176.219C176.147 61.6462 176.077 61.6189 176.025 61.5692C175.973 61.5194 175.943 61.4512 175.941 61.3793V41.2462C175.941 36.8073 176.175 32.1847 173.976 29.322C172.645 27.6051 170.754 26.7994 167.063 26.7994C165.556 26.7994 163.592 27.3313 162.085 28.0509C161.051 28.532 160.088 29.1381 159.22 29.8577C157.979 30.9528 157.075 32.3646 157.075 33.972V60.8317C157.073 60.903 157.043 60.9706 156.992 61.0203C156.94 61.0699 156.872 61.0977 156.801 61.0977H149.039C148.968 61.0977 148.899 61.0699 148.848 61.0203C148.797 60.9706 148.767 60.903 148.765 60.8317V21.2069C148.767 21.1357 148.797 21.068 148.848 21.0184C148.899 20.9687 148.968 20.941 149.039 20.941H152.307C153.63 20.941 154.793 21.7701 155.164 22.9824L155.658 24.5859C155.658 24.6954 155.728 24.7893 155.83 24.8284C155.936 24.8675 156.053 24.844 156.131 24.7736C159.587 21.5159 164.535 19.9633 169.334 19.9633C174.312 19.9633 177.534 21.4611 179.628 23.7998L179.409 23.5182C180.05 24.2457 180.61 25.0317 181.076 25.8687C181.098 25.9095 181.13 25.9442 181.169 25.9699C181.208 25.9956 181.252 26.0115 181.298 26.0161C181.345 26.0207 181.391 26.014 181.434 25.9965C181.478 25.9789 181.516 25.9512 181.546 25.9156C184.697 22.1377 190.916 19.9672 195.922 19.9672C207.328 19.9672 210.913 27.7185 210.913 35.2977L210.882 35.3134H210.886ZM338.377 61.1524H329.906C329.863 61.1524 329.821 61.1426 329.782 61.1236C329.743 61.1046 329.71 61.077 329.683 61.0429C326.489 56.8114 324.117 52.7206 323.068 51.43L322.877 51.1954C321.135 49.0366 317.553 44.4922 312.637 43.6357C312.594 43.6291 312.549 43.6327 312.507 43.6463C312.465 43.6598 312.426 43.683 312.395 43.7139L308.774 47.4449C308.749 47.4688 308.73 47.4973 308.716 47.5289C308.703 47.5605 308.696 47.5944 308.696 47.6287V60.8161C308.693 60.8873 308.662 60.9546 308.61 61.0035C308.558 61.0524 308.489 61.0792 308.418 61.0781H300.535C300.464 61.0782 300.396 61.051 300.345 61.0021C300.294 60.9533 300.264 60.8866 300.261 60.8161V5.50874C300.263 5.43749 300.293 5.36986 300.344 5.3202C300.395 5.27054 300.464 5.24277 300.535 5.2428H308.418C308.574 5.2428 308.696 5.36012 308.696 5.50874V37.3588C308.7 37.4644 308.766 37.5543 308.868 37.5934C308.97 37.6325 309.083 37.6169 309.166 37.5465L326.505 20.1784C326.558 20.1283 326.628 20.1003 326.701 20.1001H336.001C336.11 20.1041 336.204 20.1666 336.247 20.2644C336.268 20.3111 336.274 20.3628 336.264 20.4129C336.255 20.463 336.232 20.5093 336.196 20.546L318.485 38.184C318.455 38.2138 318.433 38.2504 318.421 38.2906C318.409 38.3308 318.407 38.3734 318.415 38.4147C318.43 38.4929 318.485 38.5672 318.563 38.6024C323.667 40.945 327.21 45.3291 328.857 47.3666L329.041 47.5974C330.45 49.3338 335.147 56.1504 338.619 60.7574C338.643 60.797 338.656 60.8423 338.656 60.8884C338.656 60.9346 338.643 60.9799 338.619 61.0195C338.594 61.0595 338.56 61.0926 338.519 61.1159C338.478 61.1391 338.432 61.1517 338.384 61.1524H338.377Z" fill="#11293B"/>
<path d="M134.557 14.2417C137.408 14.2417 139.719 12.0355 139.719 9.31403C139.719 6.59255 137.408 4.38635 134.557 4.38635C131.705 4.38635 129.394 6.59255 129.394 9.31403C129.394 12.0355 131.705 14.2417 134.557 14.2417Z" fill="#11293B"/>
<path d="M271.516 18.9465C259.198 18.9465 251.131 26.78 251.131 40.1434C251.131 53.5576 259.233 61.3441 271.516 61.3441C283.794 61.3441 291.892 53.5537 291.892 40.1473C291.892 26.8034 283.763 18.9465 271.516 18.9465V18.9465ZM271.516 54.7035C263.194 54.7035 259.202 49.2557 259.202 39.7444C259.202 30.288 263.194 25.5793 271.516 25.5793C279.837 25.5793 283.802 30.6791 283.802 40.1355C283.802 49.5959 279.81 54.7035 271.516 54.7035V54.7035ZM362.832 55.2314C358.378 55.8298 353.951 53.98 351.387 50.4524C350.017 48.6925 349.293 46.651 348.804 43.9721C348.799 43.9377 348.801 43.9027 348.809 43.8691C348.818 43.8355 348.833 43.804 348.855 43.7765C348.899 43.7196 348.963 43.6818 349.035 43.6709L371.533 40.64C377.702 39.7718 380.281 34.4491 377.952 29.3142C375.828 25.0299 372.158 21.7085 367.682 20.0181C361.576 17.6559 353.36 19.0365 348.98 22.521C343.136 27.1749 341.14 32.7714 340.831 38.7198C340.792 39.3846 340.776 40.0495 340.776 40.7143C340.776 42.091 340.893 43.4637 341.136 44.8207C342.678 53.7375 349.234 61.9268 360.217 61.9659C372.649 62.005 378.52 54.7934 379.526 49.3886C379.531 49.3479 379.527 49.3065 379.514 49.2677C379.5 49.2289 379.477 49.1939 379.447 49.1657C379.417 49.1359 379.38 49.1134 379.339 49.0999C379.298 49.0863 379.255 49.0821 379.213 49.0875L371.463 50.2334C371.423 50.241 371.385 50.2567 371.351 50.2796C371.317 50.3024 371.289 50.332 371.267 50.3663C369.138 53.319 366.66 54.6683 362.832 55.2314V55.2314ZM351.207 29.9517C352.284 28.6354 353.622 27.5552 355.136 26.7787C356.65 26.0022 358.308 25.5459 360.006 25.4385C363.509 25.1569 366.347 25.6302 368.836 27.9806C369.729 28.8175 370.484 29.7796 371.083 30.8277C371.983 32.3764 371.028 34.629 368.989 34.9067L348.495 37.6521C348.453 37.6586 348.41 37.6556 348.369 37.6434C348.329 37.6312 348.291 37.6102 348.26 37.5817C348.231 37.5543 348.209 37.5206 348.195 37.4833C348.182 37.446 348.177 37.4061 348.181 37.3666C348.534 34.3396 349.481 32.1104 351.207 29.9517V29.9517ZM423 36.0604V60.8122C422.998 60.8835 422.968 60.9511 422.917 61.0008C422.866 61.0504 422.797 61.0782 422.726 61.0782H414.999C414.963 61.0792 414.928 61.0732 414.894 61.0604C414.86 61.0476 414.83 61.0283 414.803 61.0036C414.777 60.9789 414.756 60.9492 414.741 60.9164C414.727 60.8836 414.719 60.8482 414.718 60.8122V40.2372C414.718 40.2372 414.815 36.7644 414.522 33.5262C414.31 31.2501 413.52 29.0443 411.704 27.6091C409.12 25.5598 405.465 26.0134 405.465 26.0134C400.928 26.4827 397.018 29.2008 394.575 31.9423L394.435 32.1026L394.575 32.044V60.8044C394.573 60.8763 394.543 60.9446 394.491 60.9943C394.439 61.0441 394.37 61.0714 394.298 61.0704H386.548C386.512 61.0714 386.476 61.0653 386.442 61.0525C386.409 61.0397 386.378 61.0204 386.352 60.9957C386.325 60.971 386.304 60.9414 386.29 60.9086C386.275 60.8758 386.267 60.8404 386.266 60.8044V20.417C386.268 20.3451 386.298 20.2768 386.35 20.2271C386.402 20.1773 386.472 20.15 386.544 20.151H392.904C393.061 20.151 393.186 20.2684 393.186 20.417V24.3748C393.186 24.4804 393.256 24.5703 393.362 24.6094C393.464 24.6485 393.577 24.629 393.656 24.5547C396.94 21.1483 401.899 19.099 407.097 19.099C411.402 19.1068 422.996 19.2789 422.996 36.0604H423Z" fill="#11293B"/>
<defs>
<linearGradient id="paint0_linear" x1="91.2102" y1="2.30656" x2="30.5089" y2="88.299" gradientUnits="userSpaceOnUse">
<stop stop-color="#11C4D1"/>
<stop offset="1" stop-color="#0062AD"/>
</linearGradient>
</defs>
</svg>
