<svg width="154" height="153" viewBox="0 0 154 153" fill="none" xmlns="http://www.w3.org/2000/svg">
<path opacity="0.4" d="M76.825 126.81C104.58 126.81 127.081 104.31 127.081 76.5546C127.081 48.7992 104.58 26.299 76.825 26.299H76.7397C48.9844 26.299 26.4842 48.7992 26.4842 76.5546C26.4842 104.31 48.9844 126.81 76.7397 126.81H76.825Z" stroke="#008AFF"/>
<path opacity="0.2" d="M76.8364 139.533C111.618 139.533 139.815 111.337 139.815 76.5546C139.815 41.7725 111.618 13.5761 76.8364 13.5761H76.7308C41.9488 13.5761 13.7523 41.7725 13.7523 76.5546C13.7523 111.337 41.9488 139.533 76.7308 139.533H76.8364Z" stroke="#008AFF"/>
<path opacity="0.1" d="M76.8466 152.256C118.655 152.256 152.548 118.363 152.548 76.5546C152.548 34.7459 118.655 0.85321 76.8466 0.85321H76.7193C34.9106 0.85321 1.01794 34.7459 1.01794 76.5546C1.01794 118.363 34.9106 152.256 76.7193 152.256H76.8466Z" stroke="#008AFF"/>
<g opacity="0.4" filter="url(#filter0_f)">
<path d="M76.6316 128.46C106.299 128.46 130.349 110.904 130.349 89.2464C130.349 67.5892 106.299 50.0326 76.6316 50.0326C46.9643 50.0326 22.9143 67.5892 22.9143 89.2464C22.9143 110.904 46.9643 128.46 76.6316 128.46Z" fill="#4496FF"/>
</g>
<path d="M130.827 76.532C130.827 46.3168 106.333 21.8226 76.1173 21.8226C45.9022 21.8226 21.4079 46.3168 21.4079 76.532V76.6232C21.4079 106.838 45.9022 131.333 76.1173 131.333C106.333 131.333 130.827 106.838 130.827 76.6232V76.532Z" fill="white"/>
<path d="M129.915 76.532C129.915 46.8204 105.829 22.7344 76.1173 22.7344C46.4057 22.7344 22.3197 46.8204 22.3197 76.532V76.6232C22.3197 106.335 46.4057 130.421 76.1173 130.421C105.829 130.421 129.915 106.335 129.915 76.6232V76.532Z" stroke="#008AFF" stroke-opacity="0.55"/>
<path d="M77 120C100.748 120 120 100.748 120 77C120 53.2518 100.748 34 77 34C53.2518 34 34 53.2518 34 77C34 100.748 53.2518 120 77 120Z" fill="url(#paint0_linear)"/>
<path fill-rule="evenodd" clip-rule="evenodd" d="M66.5606 83.7128L55.5 76.7611L66.7039 69.5944L55.5 62.8339L66.7039 55.5L82.59 65.5094C83.1952 65.5094 84.318 64.7131 85.9583 63.1206C87.7261 60.9944 88.8489 60.5883 89.3028 61.9022C89.9717 63.8611 86.6272 64.8406 83.9278 66.5367C81.2283 68.2328 81.0133 68.9256 81.6822 70.2156C82.4467 70.8606 83.6411 70.5261 85.2656 69.2361L92.6711 62.8817C95.2033 60.4928 96.9233 60.0389 97.8072 61.1617C99.145 62.8817 98.715 64.3389 94.8928 66.0589C89.0884 69.2707 83.5022 72.8618 78.1706 76.8089L89.3028 84.1667V98.0222L67.1339 84.1667V98.5L55.5 90.7839L66.5606 83.7128Z" fill="white"/>
<defs>
<filter id="filter0_f" x="11.9763" y="39.0946" width="129.311" height="100.304" filterUnits="userSpaceOnUse" color-interpolation-filters="sRGB">
<feFlood flood-opacity="0" result="BackgroundImageFix"/>
<feBlend mode="normal" in="SourceGraphic" in2="BackgroundImageFix" result="shape"/>
<feGaussianBlur stdDeviation="5.469" result="effect1_foregroundBlur"/>
</filter>
<linearGradient id="paint0_linear" x1="34.3822" y1="33.8089" x2="120.382" y2="119.809" gradientUnits="userSpaceOnUse">
<stop stop-color="#F9C521"/>
<stop offset="0.5" stop-color="#E83359"/>
<stop offset="1" stop-color="#8F3D96"/>
</linearGradient>
</defs>
</svg>
