<svg width="154" height="153" viewBox="0 0 154 153" fill="none" xmlns="http://www.w3.org/2000/svg">
<path opacity="0.4" d="M76.9608 126.957C104.716 126.957 127.216 104.457 127.216 76.7014C127.216 48.9461 104.716 26.4459 76.9608 26.4459H76.8756C49.1202 26.4459 26.62 48.9461 26.62 76.7014C26.62 104.457 49.1202 126.957 76.8756 126.957H76.9608Z" stroke="#7DA0FF"/>
<path opacity="0.2" d="M76.9723 139.68C111.754 139.68 139.951 111.483 139.951 76.7014C139.951 41.9193 111.754 13.7229 76.9723 13.7229H76.8667C42.0846 13.7229 13.8882 41.9193 13.8882 76.7014C13.8882 111.483 42.0846 139.68 76.8667 139.68H76.9723Z" stroke="#7DA0FF"/>
<path opacity="0.2" d="M76.9825 152.403C118.791 152.403 152.684 118.51 152.684 76.7014C152.684 34.8927 118.791 1 76.9825 1H76.8552C35.0465 1 1.15384 34.8927 1.15384 76.7014C1.15384 118.51 35.0465 152.403 76.8552 152.403H76.9825Z" stroke="#7DA0FF"/>
<path d="M77.5971 131.826C107.837 131.826 132.351 107.312 132.351 77.072C132.351 46.832 107.837 22.3177 77.5971 22.3177H77.5059C47.2659 22.3177 22.7515 46.832 22.7515 77.072C22.7515 107.312 47.2659 131.826 77.5059 131.826H77.5971Z" fill="white"/>
<path d="M77.5971 130.914C107.333 130.914 131.439 106.808 131.439 77.0721C131.439 47.3361 107.333 23.2303 77.5971 23.2303H77.5059C47.7699 23.2303 23.6641 47.3361 23.6641 77.0721C23.6641 106.808 47.7699 130.914 77.5059 130.914H77.5971Z" stroke="#7DA0FF"/>
<path d="M77.5898 122.701C102.79 122.701 123.218 102.272 123.218 77.072C123.218 51.872 102.79 31.4434 77.5898 31.4434H77.5132C52.3132 31.4434 31.8845 51.872 31.8845 77.072C31.8845 102.272 52.3132 122.701 77.5132 122.701H77.5898Z" fill="url(#paint0_radial)"/>
<g clip-path="url(#clip0)">
<path d="M76 122.924C99.7063 122.924 118.924 103.706 118.924 80C118.924 56.2937 99.7063 37.0759 76 37.0759C52.2937 37.0759 33.0759 56.2937 33.0759 80C33.0759 103.706 52.2937 122.924 76 122.924Z" fill="#FFCF07"/>
<path d="M76 37.1581C84.4733 37.1581 92.7564 39.6707 99.8017 44.3783C106.847 49.0858 112.338 55.7768 115.581 63.6051C118.823 71.4334 119.672 80.0475 118.019 88.358C116.366 96.6686 112.285 104.302 106.294 110.294C100.302 116.285 92.6685 120.366 84.358 122.019C76.0475 123.672 67.4334 122.823 59.6051 119.581C51.7768 116.338 45.0858 110.847 40.3782 103.802C35.6707 96.7564 33.1581 88.4733 33.1581 80C33.1698 68.6412 37.6872 57.751 45.7191 49.7191C53.751 41.6873 64.6412 37.1698 76 37.1581ZM76 37C67.4954 37 59.1818 39.5219 52.1105 44.2468C45.0392 48.9717 39.5277 55.6874 36.2732 63.5446C33.0186 71.4018 32.1671 80.0477 33.8262 88.3889C35.4854 96.7301 39.5807 104.392 45.5944 110.406C51.6081 116.419 59.2699 120.515 67.6111 122.174C75.9523 123.833 84.5982 122.981 92.4554 119.727C100.313 116.472 107.028 110.961 111.753 103.89C116.478 96.8182 119 88.5046 119 80C119 68.5957 114.47 57.6585 106.406 49.5944C98.3415 41.5303 87.4043 37 76 37V37Z" fill="#FFCF07"/>
<path d="M55.0628 94.0572V93.9624L54.9616 93.9118H44.9009V60.3971H81.2928V72.1778H85.2007C85.2422 72.1747 85.2819 72.1593 85.3146 72.1335L85.3841 72.064V72.0134V60.3465H100.282C100.482 60.508 100.723 60.6089 100.978 60.6374C101.585 60.7916 102.18 60.986 102.761 61.2191C103.857 61.6857 104.816 62.426 105.544 63.3691C106.043 64.0217 106.443 64.7439 106.732 65.5128C106.991 66.1282 107.11 66.7935 107.08 67.4604C107.08 67.8841 107.08 68.3204 107.08 68.7251C107.08 68.9591 107.08 69.1931 107.08 69.4271C107.065 69.739 107.03 70.0496 106.973 70.3566V70.4135C106.862 70.9319 106.679 71.4322 106.429 71.8996L106.328 72.1019C106.047 72.6792 105.683 73.2119 105.246 73.6828C104.845 74.095 104.38 74.4388 103.868 74.7009L103.672 74.8147C103.138 75.1787 102.528 75.4146 101.889 75.504C101.744 75.5308 101.607 75.5915 101.49 75.681L101.326 75.7822L101.237 75.8265L104.709 79.8735L100.915 81.7706L100.763 81.6251C100.561 81.3912 100.346 81.1572 100.131 80.9232C99.5931 80.2909 99.0366 79.7028 98.5244 79.0641L97.7276 78.1029L96.0772 76.1426H89.7537V87.6768L85.3272 89.909V76.1426H81.5331L81.2612 76.3766V92.0653C80.1988 92.6471 56.9219 104.946 55.0628 105.926V94.0572ZM59.0276 75.4281V99.4196L59.1351 99.3626C59.7232 99.0844 76.7272 90.0038 77.4734 89.6118H77.5176V65.8606L59.0276 75.4281ZM48.8594 89.8963L55.0375 89.8457V76.13H48.8594V89.8963ZM89.7853 72.0956L89.9054 72.1398C89.9419 72.162 89.9831 72.175 90.0256 72.1778H99.2769C99.6274 72.1883 99.9763 72.1259 100.301 71.9944C100.756 71.8314 101.174 71.5799 101.532 71.2542C101.889 70.9286 102.178 70.5354 102.382 70.0974C102.433 69.9805 102.494 69.8684 102.565 69.7622L102.666 69.5915C102.677 69.3593 102.709 69.1286 102.761 68.9022C102.908 68.4572 102.878 67.973 102.679 67.549C102.632 66.8408 102.341 66.1706 101.857 65.6519C101.568 65.3177 101.197 65.063 100.782 64.9121C100.562 64.8206 100.351 64.7106 100.15 64.5832C99.3154 64.4302 98.4681 64.3603 97.6201 64.3746H96.5198H95.4259H89.7853V72.0956ZM48.8531 72.1588H56.9029L71.7063 64.3176H48.8531V72.1588Z" fill="black"/>
<path d="M100.263 60.3971C100.467 60.5512 100.706 60.6513 100.959 60.6879C101.564 60.8396 102.157 61.0319 102.736 61.2634C103.82 61.7265 104.769 62.4576 105.493 63.3881C105.987 64.0357 106.386 64.7513 106.675 65.5128C106.92 66.1142 107.035 66.7609 107.011 67.4099C106.979 67.8399 107.011 68.2699 107.011 68.6746C107.011 68.9085 107.011 69.1425 107.011 69.3702C106.999 69.6803 106.963 69.989 106.903 70.2934V70.3503C106.795 70.8634 106.612 71.3578 106.359 71.8174L106.264 72.0197C105.987 72.6235 105.621 73.182 105.177 73.6765C104.778 74.0687 104.322 74.3972 103.824 74.6503L103.628 74.7578C103.104 75.1175 102.505 75.3513 101.876 75.4407C101.718 75.467 101.569 75.5298 101.44 75.6241C101.391 75.6617 101.338 75.6935 101.281 75.719L101.104 75.8138L101.237 75.9656L104.576 79.8609L100.953 81.6568L100.845 81.5556L100.213 80.8537C99.6753 80.253 99.1125 79.6332 98.6003 78.9882L97.7909 78.0397L96.1594 76.1427L96.1152 76.0857H89.6968V87.6325L85.4853 89.7825V76.0605H81.5078L81.4635 76.1047L81.3876 76.1806L81.2485 76.3197L81.2043 76.364V92.0147C79.7119 92.8178 57.6618 104.466 55.1324 105.794V94.0003V93.9371V93.9055L55.0754 93.8485L55.0312 93.8043H44.9768V60.3971H81.2169V72.2537H85.2007C85.258 72.2515 85.3133 72.2316 85.3588 72.1968C85.3886 72.1764 85.4143 72.1507 85.4347 72.1209L85.4727 72.0766V60.3971H100.263ZM48.8088 72.2347H56.9409H56.9788L71.4597 64.5516L72.0225 64.2544H48.8088V72.2347ZM95.4196 64.3619H89.7284V72.1525L89.8359 72.1905H89.8928C89.9403 72.2133 89.9919 72.2262 90.0446 72.2284H99.2959C99.6572 72.2465 100.018 72.1838 100.352 72.045C101.28 71.7126 102.042 71.0322 102.477 70.1479C102.522 70.0369 102.58 69.931 102.647 69.8318L102.755 69.6547V69.6168V69.5662C102.762 69.3532 102.789 69.1414 102.837 68.9338C102.977 68.4848 102.953 68.0004 102.768 67.568C102.701 66.8598 102.403 66.1932 101.92 65.6709C101.622 65.3257 101.242 65.0623 100.814 64.9057C100.595 64.8122 100.383 64.7023 100.181 64.5769C99.3457 64.4351 98.4991 64.3695 97.6518 64.3809H96.5452H95.4512L95.4196 64.3619ZM58.9265 99.546L59.1541 99.4322C59.7359 99.154 76.7462 90.0734 77.4924 89.6813L77.5746 89.6371V65.7341L77.3469 65.8479L59.0403 75.3332L58.9265 75.3838V99.546ZM48.8088 89.9785H48.9669L54.9806 89.9343H55.1324V76.0225H48.8088V89.9343V89.9785ZM100.358 60.2137H85.3146V72.0134C85.3031 72.0365 85.2856 72.0562 85.264 72.0703C85.2435 72.0775 85.2212 72.0775 85.2007 72.0703H81.4066V60.2643H44.8187V93.9118H54.9363L54.9869 93.9687V94.0319V106.047C54.9869 106.047 81.179 92.2234 81.3624 92.1096V76.4335L81.5774 76.2185H85.2956V90.0418L89.8549 87.7274V76.2059H96.0393L97.6707 78.103L98.4802 79.0515C99.1884 79.9368 99.9662 80.7715 100.719 81.6188C100.769 81.6757 100.921 81.8085 100.921 81.8085L104.823 79.8735L101.351 75.8265C101.509 75.7045 101.69 75.6143 101.882 75.5609C102.606 75.4472 103.294 75.168 103.893 74.7452C104.413 74.4783 104.887 74.1304 105.297 73.7144C105.736 73.2372 106.102 72.6982 106.385 72.1146C106.676 71.5785 106.889 71.0036 107.017 70.4072C107.082 70.0755 107.122 69.7394 107.137 69.4018C107.137 68.7694 107.099 68.0802 107.137 67.4288C107.17 66.7494 107.051 66.0712 106.789 65.4432C106.496 64.668 106.091 63.9395 105.588 63.2806C104.849 62.3309 103.88 61.5845 102.774 61.1116C102.185 60.8749 101.581 60.6785 100.965 60.5235C100.731 60.4858 100.512 60.3828 100.333 60.2263L100.358 60.2137ZM71.3902 64.3935L56.9029 72.0766H48.9353V64.3935H71.3902ZM95.4196 64.52C96.1531 64.52 96.8866 64.52 97.6202 64.52C98.455 64.5067 99.2892 64.5723 100.112 64.716C100.655 65.0891 101.376 65.203 101.794 65.7721C102.269 66.2809 102.557 66.9367 102.609 67.6312C102.983 68.2952 102.609 68.9591 102.609 69.5915C102.502 69.7583 102.405 69.9315 102.319 70.11C102.117 70.5358 101.832 70.9173 101.481 71.2321C101.131 71.5469 100.721 71.7889 100.276 71.9438C99.9634 72.0713 99.6269 72.1295 99.2896 72.1146H90.0256C89.9813 72.1146 89.9434 72.1146 89.8675 72.0577V64.5137H95.4196V64.52ZM59.1035 99.2994V75.4787L77.4418 65.9934V89.5422C77.4418 89.5422 59.7359 99.0275 59.1352 99.2931L59.1035 99.2994ZM48.9416 89.8141V76.2059H54.9553V89.7699L48.9416 89.8141Z" fill="#FFCF07"/>
</g>
<defs>
<radialGradient id="paint0_radial" cx="0" cy="0" r="1" gradientUnits="userSpaceOnUse" gradientTransform="translate(10.2008 56.362) rotate(78.465) scale(67.1357 125.595)">
<stop stop-color="#FFD110"/>
<stop offset="0.84375" stop-color="#FECF08"/>
</radialGradient>
<clipPath id="clip0">
<rect width="86" height="86" fill="white" transform="translate(33 37)"/>
</clipPath>
</defs>
</svg>
