<?xml version="1.0" encoding="UTF-8"?><!DOCTYPE svg PUBLIC "-//W3C//DTD SVG 1.1//EN" "http://www.w3.org/Graphics/SVG/1.1/DTD/svg11.dtd"><svg xmlns="http://www.w3.org/2000/svg"><symbol id="icon-arrow-left" viewBox="0 0 22 16">
    <path fill-rule="evenodd" d="M7.293 15.707a1 1 0 1 0 1.414-1.414L3.414 9H21a1 1 0 0 0 0-2H3.414l5.293-5.293A1 1 0 0 0 7.293.293l-7 7A.996.996 0 0 0 0 8m.076.383a.997.997 0 0 0 .217.324l7 7M.076 8.383A.996.996 0 0 1 0 8.009l.076.374z"/>
</symbol><symbol id="icon-arrow-next" viewBox="0 0 8 14">
    <path fill-rule="evenodd" clip-rule="evenodd" d="M.293 13.707a1 1 0 0 1 0-1.414L5.586 7 .293 1.707A1 1 0 0 1 1.707.293l6 6a1 1 0 0 1 0 1.414l-6 6a1 1 0 0 1-1.414 0z"/>
</symbol><symbol id="icon-arrow-prev" viewBox="0 0 8 14">
    <path fill-rule="evenodd" clip-rule="evenodd" d="M7.707.293a1 1 0 0 1 0 1.414L2.414 7l5.293 5.293a1 1 0 1 1-1.414 1.414l-6-6a1 1 0 0 1 0-1.414l6-6a1 1 0 0 1 1.414 0z"/>
</symbol><symbol id="icon-arrow-right" viewBox="0 0 22 16">
    <path fill-rule="evenodd" clip-rule="evenodd" d="M14.707.293a1 1 0 1 0-1.414 1.414L18.586 7H1a1 1 0 0 0 0 2h17.586l-5.293 5.293a1 1 0 0 0 1.414 1.414l7-7A.996.996 0 0 0 22 8m-.076-.383a.997.997 0 0 0-.217-.324l-7-7m7.217 7.324a.996.996 0 0 1 .076.374z"/>
</symbol><symbol id="icon-arrows" viewBox="0 0 12 18">
    <path fill-rule="evenodd" clip-rule="evenodd" d="M6.664 1.128a1 1 0 0 0-1.328 0l-4.5 4a1 1 0 0 0 1.328 1.494L6 3.213l3.836 3.41a1 1 0 1 0 1.328-1.495l-4.5-4zm-4.5 11a1 1 0 0 0-1.328 1.494l4.5 4a1 1 0 0 0 1.328 0l4.5-4a1 1 0 0 0-1.328-1.494L6 15.538l-3.836-3.41z"/>
</symbol><symbol id="icon-dribbble" viewBox="0 0 16 16">
    <path fill-rule="evenodd" clip-rule="evenodd" d="M8 0C3.6 0 0 3.6 0 8s3.6 8 8 8 8-3.6 8-8-3.6-8-8-8zm2.2 7.4s-.2-.6-.3-.8c1.7-.8 2.8-1.7 3.2-2.2.7.9 1.1 2 1.2 3.2-.8-.2-2.6-.5-4.1-.2zM9.1 5.1C8.3 3.7 7.4 2.5 7 1.8c1.9-.5 3.6.1 4.9 1.3-.4.5-1.2 1.3-2.8 2zm-4-2.6c.4.5 1.2 1.7 2 3.2-2.2.5-4.2.6-5.1.6.4-1.6 1.6-3 3.1-3.8zM8 7.3c.1.2.2.4.3.5-2.8.9-4.6 3.2-5.2 4.1-.8-1.1-1.3-2.4-1.3-3.7.9-.1 3.5-.2 6.2-.9zm1 2.2c.7 2 1.1 3.6 1.2 4.4-2.1.7-4.5.3-5.8-.8.4-.7 1.7-2.5 4.6-3.6zm2.9 3.4c-.2-.8-.5-2.2-1.1-3.9 1.1-.2 2.7 0 3.3.2-.3 1.5-1.1 2.8-2.2 3.7z"/>
</symbol><symbol id="icon-email" viewBox="0 0 18 15">
    <path fill-rule="evenodd" clip-rule="evenodd" d="M2.422.267A2.133 2.133 0 0 0 .29 2.4v9.956c0 1.178.955 2.133 2.133 2.133h12.8a2.133 2.133 0 0 0 2.134-2.133V2.4A2.133 2.133 0 0 0 15.222.267h-12.8zM1.712 2.4c0-.393.318-.711.71-.711h12.8c.393 0 .712.318.712.711v9.956a.711.711 0 0 1-.712.71h-12.8a.711.711 0 0 1-.71-.71V2.4zm2.635.92a.711.711 0 1 0-1.005 1.005l4.977 4.978a.711.711 0 0 0 1.006 0l4.978-4.978a.711.711 0 1 0-1.006-1.006L8.822 7.794 4.347 3.32zM5.77 9.007a.711.711 0 0 1 0 1.006l-1.422 1.422a.711.711 0 0 1-1.005-1.005l1.422-1.423a.711.711 0 0 1 1.005 0zm7.112 0a.711.711 0 1 0-1.006 1.006l1.422 1.422a.711.711 0 0 0 1.006-1.005l-1.422-1.423z"/>
</symbol><symbol id="icon-instagram" viewBox="0 0 16 16">
    <circle cx="12.145" cy="3.892" r=".96"/>
    <path fill-rule="evenodd" clip-rule="evenodd" d="M4 8c0 2.206 1.794 4 4 4s4-1.794 4-4-1.794-4-4-4-4 1.794-4 4zm2 0c0-1.103.897-2 2-2s2 .897 2 2-.897 2-2 2-2-.897-2-2z"/>
    <path fill-rule="evenodd" clip-rule="evenodd" d="M4 16h8c2.056 0 4-1.944 4-4V4c0-2.056-1.944-4-4-4H4C1.944 0 0 1.944 0 4v8c0 2.056 1.944 4 4 4zM2 4c0-.935 1.065-2 2-2h8c.935 0 2 1.065 2 2v8c0 .935-1.065 2-2 2H4c-.953 0-2-1.047-2-2V4z"/>
</symbol><symbol id="icon-message" viewBox="0 0 18 18">
    <path fill-rule="evenodd" clip-rule="evenodd" d="M.5 2.875a2 2 0 0 1 2-2h13a2 2 0 0 1 2 2v10a2 2 0 0 1-2 2h-3.532l-2.2 2.64a1 1 0 0 1-1.536 0l-2.2-2.64H2.5a2 2 0 0 1-2-2v-10zm15 0h-13v10h4a1 1 0 0 1 .768.36L9 15.313l1.732-2.078a1 1 0 0 1 .768-.36h4v-10zm-12 3a1 1 0 0 1 1-1h9a1 1 0 1 1 0 2h-9a1 1 0 0 1-1-1zm1 3a1 1 0 1 0 0 2h9a1 1 0 1 0 0-2h-9z"/>
</symbol><symbol id="icon-phone" viewBox="0 0 17 18">
    <path fill-rule="evenodd" clip-rule="evenodd" d="M6.689 2.978c0-.393.318-.711.71-.711h7.112c.393 0 .711.318.711.71v4.267a.711.711 0 0 1-.711.712H8.822c-.11 0-.22.025-.318.075l-1.815.907v-5.96zm.71-2.134a2.133 2.133 0 0 0-2.132 2.134v7.11a.711.711 0 0 0 1.029.637L8.99 9.378h5.521a2.133 2.133 0 0 0 2.133-2.134V2.978A2.133 2.133 0 0 0 14.511.844H7.4zM2.423 2.267A2.133 2.133 0 0 0 .29 4.4v11.378c0 1.178.955 2.133 2.133 2.133h7.823a2.133 2.133 0 0 0 2.133-2.133V10.8a.711.711 0 0 0-1.422 0v4.978a.711.711 0 0 1-.711.71H2.422a.711.711 0 0 1-.71-.71V4.4c0-.393.318-.711.71-.711h1.423a.711.711 0 0 0 0-1.422H2.422z"/>
</symbol><symbol id="icon-place" viewBox="0 0 18 18">
    <path fill-rule="evenodd" clip-rule="evenodd" d="M9.273.85a.711.711 0 0 0-.9 0L.55 7.25a.711.711 0 0 0 .9 1.1L8.822 2.32l5.85 4.786a.711.711 0 1 0 .901-1.1L9.273.85zM3.845 9.222a.711.711 0 0 0-1.423 0v7.111c0 .393.319.711.711.711h6.4a.711.711 0 1 0 0-1.422H3.845v-6.4zm9.931 0a2.041 2.041 0 0 0-2.11 2.008c.002.242.113.6.36 1.053.238.44.566.9.907 1.328.31.386.62.732.867.996.248-.264.558-.61.867-.996.342-.427.67-.888.908-1.328.246-.453.357-.81.359-1.053a2.042 2.042 0 0 0-2.158-2.008zm2.869 2.003h.71c0 .599-.244 1.21-.53 1.737a10.784 10.784 0 0 1-1.047 1.537 18.529 18.529 0 0 1-1.45 1.602l-.026.025-.008.008-.003.003-.49-.515-.492.515-.003-.003-.007-.008-.027-.025a17.888 17.888 0 0 1-.432-.44c-.276-.29-.646-.697-1.017-1.162-.37-.462-.754-.995-1.048-1.537-.286-.527-.53-1.138-.53-1.737v-.01A3.464 3.464 0 0 1 13.8 7.8a3.464 3.464 0 0 1 3.556 3.416l-.711.01zm-3.336 4.912l.491-.515.491.515a.712.712 0 0 1-.982 0zm.491-4.07a.711.711 0 1 0 0-1.423.711.711 0 0 0 0 1.423z"/>
</symbol><symbol id="icon-profile" viewBox="0 0 17 18">
    <path fill-rule="evenodd" clip-rule="evenodd" d="M8.5.875a4.5 4.5 0 0 0-4.5 4.5v2a4.5 4.5 0 0 0 9 0v-2a4.5 4.5 0 0 0-4.5-4.5zM6 5.375a2.5 2.5 0 0 1 5 0v2a2.5 2.5 0 0 1-5 0v-2zM3.546 12.25a1 1 0 0 0-.968-1.75A5 5 0 0 0 0 14.875v2a1 1 0 0 0 1 1h15a1 1 0 0 0 1-1v-2a5 5 0 0 0-2.578-4.375 1 1 0 1 0-.969 1.75A3 3 0 0 1 15 14.875v1H2v-1a3 3 0 0 1 1.546-2.625z"/>
</symbol><symbol id="icon-send" viewBox="0 0 17 17">
    <path fill-rule="evenodd" clip-rule="evenodd" d="M16.707.668a1 1 0 0 1 .238 1.033l-5 14.5a1 1 0 0 1-1.853.093l-3-6.5a1 1 0 0 1 .2-1.126l3-3a1 1 0 1 1 1.415 1.414L9.2 9.59l1.666 3.608 3.52-10.207L4.178 6.51l2.223 1.025a1 1 0 1 1-.838 1.816L1.081 7.283a1 1 0 0 1 .093-1.853l14.5-5a1 1 0 0 1 1.033.238z"/>
</symbol>
<symbol id="icon-eye" viewBox="0 0 18 18">
<path d="M17.7597 8.58489C15.954 5.46494 12.5976 3.52686 9 3.52686C5.40216 3.52686 2.04595 5.46472 0.239914 8.58489L0 8.99978L0.240129 9.41488C2.04574 12.5346 5.40216 14.4727 9 14.4727C12.5976 14.4727 15.954 12.5348 17.7599 9.41488L18 8.99978L17.7597 8.58489ZM9.08997 11.9424C7.31953 11.9424 5.87896 10.502 5.87896 8.73139C5.87896 6.96094 7.31953 5.52038 9.08997 5.52038C10.8604 5.52038 12.301 6.96094 12.301 8.73139C12.301 10.502 10.8604 11.9424 9.08997 11.9424ZM1.93096 8.99978C2.69471 7.84077 3.7247 6.90334 4.9109 6.24681C4.47594 6.9754 4.22136 7.8233 4.22136 8.73139C4.22136 10.028 4.73376 11.2034 5.56246 12.0772C4.10227 11.4239 2.83128 10.3661 1.93096 8.99978ZM12.7536 11.9266C13.5012 11.0708 13.9579 9.95447 13.9579 8.73117C13.9579 7.89018 13.7439 7.09881 13.367 6.40798C14.4362 7.0535 15.3659 7.93225 16.0686 8.99956C15.2343 10.266 14.0809 11.2673 12.7536 11.9266ZM10.3534 8.66839C10.3534 9.41574 9.74714 10.0216 9.00022 10.0216C8.25264 10.0216 7.64682 9.41553 7.64682 8.66839C7.64682 7.92081 8.25286 7.31499 9.00022 7.31499C9.74736 7.31499 10.3534 7.92081 10.3534 8.66839Z"/>
</symbol>
<symbol id="icon-eye-flash" viewBox="0 0 18 18">
    <path d="M17.8771 9.37805C16.7846 10.8095 15.4723 12.059 13.9892 13.0802L16.5259 15.6169C16.7812 15.8636 16.7883 16.2705 16.5417 16.5259C16.295 16.7813 15.8881 16.7884 15.6327 16.5417C15.6273 16.5366 15.6221 16.5313 15.6169 16.5259L12.8456 13.7571C11.6659 14.4064 10.3462 14.7594 9.00001 14.7857C4.11433 14.7857 0.283586 9.59919 0.122861 9.37809C-0.0409535 9.15272 -0.0409535 8.84747 0.122861 8.62211C1.21543 7.19068 2.52764 5.94115 4.01082 4.91992L1.47413 2.38324C1.21875 2.13659 1.21166 1.72964 1.45831 1.47425C1.70495 1.21887 2.11191 1.21179 2.36729 1.45843C2.37264 1.46359 2.37791 1.46887 2.38311 1.47425L5.15443 4.24301C6.33405 3.59378 7.65375 3.2408 8.99997 3.21443C13.8857 3.21443 17.7164 8.40096 17.8771 8.62211C18.041 8.84743 18.041 9.15269 17.8771 9.37805ZM4.94553 5.85267C3.63596 6.72489 2.4621 7.78541 1.46192 9.00006C2.4082 10.1463 5.47716 13.5 9.00001 13.5C10.0023 13.4798 10.9877 13.2383 11.8858 12.7929L10.7698 11.6769C9.29321 12.6572 7.30153 12.2549 6.32124 10.7784C5.60715 9.70277 5.60715 8.30397 6.32124 7.22839L4.94553 5.85267ZM10.7357 9.82613C10.8615 9.56887 10.9275 9.28644 10.9286 9.00006C10.9286 7.93495 10.0651 7.0715 9.00001 7.0715C8.71363 7.0726 8.4312 7.13855 8.17393 7.26436L10.7357 9.82613ZM7.26431 8.17402C7.1385 8.43129 7.07255 8.71371 7.07146 9.0001C7.07146 10.0652 7.9349 10.9286 9.00001 10.9286C9.28639 10.9276 9.56882 10.8616 9.82609 10.7358L7.26431 8.17402ZM9.00001 4.50012C7.99773 4.52039 7.01236 4.76187 6.11426 5.20725L7.23026 6.32325C8.70681 5.34296 10.6985 5.74525 11.6788 7.2218C12.3929 8.29738 12.3929 9.69618 11.6788 10.7718L13.0545 12.1475C14.3641 11.2753 15.5379 10.2147 16.5381 9.0001C15.5918 7.85385 12.5228 4.50012 9.00001 4.50012Z"/>
</symbol>
<symbol id="icon-password" viewBox="0 0 18 18">
    <path d="M14.0625 6.75H13.5V4.5C13.5 2.01825 11.4817 0 9 0C6.51825 0 4.5 2.01825 4.5 4.5V6.75H3.9375C3.0075 6.75 2.25 7.50675 2.25 8.4375V16.3125C2.25 17.2433 3.0075 18 3.9375 18H14.0625C14.9925 18 15.75 17.2433 15.75 16.3125V8.4375C15.75 7.50675 14.9925 6.75 14.0625 6.75ZM6 4.5C6 2.8455 7.3455 1.5 9 1.5C10.6545 1.5 12 2.8455 12 4.5V6.75H6V4.5ZM9.75 12.5415V14.25C9.75 14.664 9.41475 15 9 15C8.58525 15 8.25 14.664 8.25 14.25V12.5415C7.80375 12.2813 7.5 11.8027 7.5 11.25C7.5 10.4227 8.17275 9.75 9 9.75C9.82725 9.75 10.5 10.4227 10.5 11.25C10.5 11.8027 10.1962 12.2813 9.75 12.5415Z"/>
</symbol>
</svg>