<svg width="352" height="82" viewBox="0 0 352 82" fill="none" xmlns="http://www.w3.org/2000/svg">
<path fill-rule="evenodd" clip-rule="evenodd" d="M2.77818 13.9913C0 19.475 0 26.65 0 41C0 55.35 0 62.525 2.77818 68.0089C5.22501 72.8264 9.12463 76.7468 13.9163 79.2068C19.3707 82 26.5073 82 40.7805 82C55.0537 82 62.1902 82 67.6447 79.2068C72.4364 76.7468 76.3359 72.8264 78.7827 68.0089C81.561 62.525 81.561 55.35 81.561 41C81.561 26.65 81.561 19.475 78.7827 13.9913C76.3359 9.17375 72.4364 5.25314 67.6447 2.79314C62.1902 0 55.0537 0 40.7805 0C26.5073 0 19.3707 0 13.9163 2.79314C9.12463 5.25314 5.22501 9.17375 2.77818 13.9913ZM61.1325 22.1143C61.8462 22.1143 62.5216 22.4091 63.0187 22.9089C63.5156 23.4214 63.7961 24.1132 63.7833 24.8177C63.656 32.4541 63.3628 38.2966 62.8148 42.9218C62.2795 47.5473 61.4766 50.9809 60.266 53.7614C59.4504 55.6191 58.4436 57.1566 57.2584 58.4634C55.6654 60.1932 53.8431 61.4489 51.855 62.6404C51.005 63.1514 50.1214 63.656 49.1944 64.1853C47.2165 65.3145 45.0418 66.5562 42.5774 68.2139C41.6854 68.8159 40.5257 68.8159 39.6337 68.2139C37.1315 66.5367 34.9281 65.2798 32.9322 64.1415C32.4883 63.8884 32.0547 63.6411 31.6304 63.3964C29.2984 62.0382 27.1956 60.7441 25.3605 58.8734C24.1371 57.6434 23.0794 56.1443 22.2382 54.3634C21.0913 51.9802 20.3139 49.0975 19.7404 45.3691C18.9758 40.385 18.5935 33.8634 18.4533 24.8177C18.4405 24.1132 18.7082 23.4214 19.2052 22.9089C19.7022 22.4091 20.3903 22.1143 21.104 22.1143H22.2C25.5771 22.1273 33.0322 21.7941 39.4807 16.746C40.4364 16.0028 41.7747 16.0028 42.7304 16.746C49.1789 21.7941 56.634 22.1273 60.0239 22.1143H61.1325ZM55.2067 52.0573C56.035 50.3402 56.7233 47.97 57.2457 44.5618C57.8701 40.4875 58.2526 34.9525 58.4309 27.4189C54.4548 27.3034 47.6241 26.5348 41.1119 22.1273C34.5999 26.5218 27.7691 27.2907 23.8057 27.4189C23.9459 33.6457 24.2262 38.4889 24.6722 42.2941C25.1819 46.6248 25.9085 49.5589 26.8132 51.6216C27.4122 52.9925 28.075 53.9791 28.8651 54.8502C29.9228 56.0164 31.2608 56.9773 33.0833 58.0791C33.8392 58.5351 34.6726 59.0094 35.5799 59.5257C37.1963 60.4454 39.0469 61.4985 41.1119 62.8198C43.1389 61.5201 44.9628 60.4778 46.5604 59.5648C47.042 59.2897 47.5028 59.0262 47.9426 58.7709C50.1855 57.4768 51.8423 56.4007 53.0784 55.145C53.9069 54.2866 54.5823 53.3514 55.2067 52.0573Z" fill="#3375BB"/>
<path d="M114.469 32.8172H105.334V27.4052H130.21V32.8172H121.075V56.1052H114.469V32.8172ZM137.691 36.9582C138.452 35.8922 139.472 35.0858 140.749 34.5392C142.054 33.9926 143.55 33.7192 145.235 33.7192V39.6232C144.528 39.5686 144.053 39.5412 143.808 39.5412C141.986 39.5412 140.559 40.0606 139.526 41.0992C138.493 42.1106 137.976 43.6412 137.976 45.6912V56.1052H131.615V34.0472H137.691V36.9582ZM170.057 34.0472V56.1052H164.021V53.4812C163.178 54.4378 162.173 55.1758 161.004 55.6952C159.834 56.1872 158.57 56.4332 157.211 56.4332C154.329 56.4332 152.045 55.5996 150.36 53.9322C148.674 52.2648 147.832 49.7912 147.832 46.5112V34.0472H154.193V45.5682C154.193 49.1216 155.675 50.8982 158.638 50.8982C160.161 50.8982 161.384 50.4062 162.309 49.4222C163.233 48.4108 163.695 46.9212 163.695 44.9532V34.0472H170.057ZM182.108 56.4332C180.287 56.4332 178.506 56.2146 176.766 55.7772C175.026 55.3126 173.64 54.7386 172.607 54.0552L174.727 49.4632C175.706 50.0918 176.888 50.6112 178.275 51.0212C179.662 51.4038 181.021 51.5952 182.353 51.5952C185.045 51.5952 186.39 50.9256 186.39 49.5862C186.39 48.9576 186.023 48.5066 185.289 48.2332C184.555 47.9598 183.427 47.7276 181.904 47.5362C180.11 47.2628 178.629 46.9486 177.459 46.5932C176.29 46.2378 175.271 45.6092 174.401 44.7072C173.558 43.8052 173.137 42.5206 173.137 40.8532C173.137 39.4592 173.531 38.2292 174.319 37.1632C175.135 36.0698 176.304 35.2226 177.826 34.6212C179.376 34.0198 181.198 33.7192 183.291 33.7192C184.841 33.7192 186.377 33.8968 187.899 34.2522C189.449 34.5802 190.727 35.0448 191.733 35.6462L189.612 40.1972C187.682 39.1038 185.575 38.5572 183.291 38.5572C181.932 38.5572 180.912 38.7486 180.232 39.1312C179.553 39.5138 179.213 40.0058 179.213 40.6072C179.213 41.2906 179.58 41.7688 180.314 42.0422C181.048 42.3156 182.217 42.5752 183.821 42.8212C185.615 43.1218 187.084 43.4498 188.225 43.8052C189.367 44.1332 190.36 44.7482 191.202 45.6502C192.045 46.5522 192.467 47.8096 192.467 49.4222C192.467 50.7888 192.059 52.0052 191.243 53.0712C190.428 54.1372 189.231 54.9708 187.655 55.5722C186.105 56.1462 184.256 56.4332 182.108 56.4332ZM209.319 55.0392C208.694 55.5038 207.919 55.8592 206.995 56.1052C206.098 56.3238 205.146 56.4332 204.14 56.4332C201.53 56.4332 199.505 55.7636 198.064 54.4242C196.65 53.0848 195.943 51.1168 195.943 48.5202V39.4592H192.558V34.5392H195.943V29.1682H202.305V34.5392H207.77V39.4592H202.305V48.4382C202.305 49.3676 202.536 50.0918 202.998 50.6112C203.488 51.1032 204.167 51.3492 205.037 51.3492C206.043 51.3492 206.9 51.0758 207.606 50.5292L209.319 55.0392ZM265.586 27.4052L256.247 56.1052H249.151L242.871 36.6712L236.387 56.1052H229.332L219.953 27.4052H226.804L233.247 47.5772L239.976 27.4052H246.093L252.618 47.7412L259.265 27.4052H265.586ZM274.82 33.7192C278.217 33.7192 280.827 34.5392 282.649 36.1792C284.472 37.7918 285.382 40.2382 285.382 43.5182V56.1052H279.428V53.3582C278.232 55.4082 276.002 56.4332 272.74 56.4332C271.055 56.4332 269.587 56.1462 268.335 55.5722C267.112 54.9982 266.174 54.2056 265.522 53.1942C264.869 52.1828 264.543 51.0348 264.543 49.7502C264.543 47.7002 265.305 46.0876 266.827 44.9122C268.376 43.7368 270.754 43.1492 273.963 43.1492H279.02C279.02 41.7552 278.599 40.6892 277.756 39.9512C276.912 39.1858 275.648 38.8032 273.963 38.8032C272.793 38.8032 271.639 38.9946 270.497 39.3772C269.383 39.7326 268.43 40.2246 267.642 40.8532L265.359 36.3842C266.554 35.5368 267.981 34.8808 269.64 34.4162C271.325 33.9516 273.053 33.7192 274.82 33.7192ZM274.33 52.1282C275.418 52.1282 276.382 51.8822 277.226 51.3902C278.069 50.8708 278.666 50.1192 279.02 49.1352V46.8802H274.656C272.046 46.8802 270.742 47.7412 270.742 49.4632C270.742 50.2832 271.055 50.9392 271.679 51.4312C272.332 51.8958 273.216 52.1282 274.33 52.1282ZM289.917 25.6832H296.279V56.1052H289.917V25.6832ZM300.958 25.6832H307.319V56.1052H300.958V25.6832ZM333.492 45.1582C333.492 45.2402 333.451 45.8142 333.37 46.8802H316.772C317.072 48.2468 317.779 49.3266 318.893 50.1192C320.009 50.9118 321.395 51.3082 323.052 51.3082C324.194 51.3082 325.201 51.1442 326.07 50.8162C326.967 50.4608 327.798 49.9142 328.558 49.1762L331.942 52.8662C329.878 55.2442 326.86 56.4332 322.889 56.4332C320.416 56.4332 318.227 55.9548 316.323 54.9982C314.422 54.0142 312.954 52.6612 311.919 50.9392C310.887 49.2172 310.369 47.2628 310.369 45.0762C310.369 42.9168 310.874 40.9762 311.878 39.2542C312.913 37.5048 314.312 36.1518 316.079 35.1952C317.873 34.2112 319.871 33.7192 322.073 33.7192C324.222 33.7192 326.167 34.1838 327.905 35.1132C329.646 36.0426 331.004 37.3818 331.983 39.1312C332.99 40.8532 333.492 42.8622 333.492 45.1582ZM322.114 38.5572C320.674 38.5572 319.463 38.9672 318.485 39.7872C317.506 40.6072 316.909 41.7278 316.69 43.1492H327.497C327.28 41.7552 326.682 40.6482 325.703 39.8282C324.724 38.9808 323.529 38.5572 322.114 38.5572ZM350.656 55.0392C350.03 55.5038 349.255 55.8592 348.332 56.1052C347.435 56.3238 346.482 56.4332 345.477 56.4332C342.867 56.4332 340.841 55.7636 339.401 54.4242C337.986 53.0848 337.28 51.1168 337.28 48.5202V39.4592H333.895V34.5392H337.28V29.1682H343.642V34.5392H349.107V39.4592H343.642V48.4382C343.642 49.3676 343.872 50.0918 344.335 50.6112C344.825 51.1032 345.503 51.3492 346.374 51.3492C347.379 51.3492 348.235 51.0758 348.943 50.5292L350.656 55.0392Z" fill="#3375BB"/>
</svg>
