<svg width="287" height="50" viewBox="0 0 287 50" fill="none" xmlns="http://www.w3.org/2000/svg">
<g clip-path="url(#clip0)">
<path d="M86.8662 36L84.4052 32.435L82.3352 36H78.0802L82.3122 29.445L77.9652 23.166H82.3812L84.8422 26.708L86.9122 23.166H91.1672L86.8662 29.629L91.2822 36H86.8662ZM108.516 24.96C108.224 24.4233 107.803 24.017 107.251 23.741C106.714 23.4497 106.078 23.304 105.342 23.304C104.069 23.304 103.049 23.7257 102.283 24.569C101.516 25.397 101.133 26.5087 101.133 27.904C101.133 29.3913 101.531 30.5567 102.329 31.4C103.141 32.228 104.253 32.642 105.664 32.642C106.63 32.642 107.442 32.3967 108.102 31.906C108.776 31.4153 109.267 30.71 109.574 29.79H104.583V26.892H113.139V30.549C112.847 31.5303 112.349 32.4427 111.644 33.286C110.954 34.1293 110.072 34.8117 108.999 35.333C107.925 35.8543 106.714 36.115 105.365 36.115C103.77 36.115 102.344 35.77 101.087 35.08C99.8447 34.3747 98.871 33.401 98.1657 32.159C97.4757 30.917 97.1307 29.4987 97.1307 27.904C97.1307 26.3093 97.4757 24.891 98.1657 23.649C98.871 22.3917 99.8447 21.418 101.087 20.728C102.329 20.0227 103.747 19.67 105.342 19.67C107.274 19.67 108.899 20.1377 110.218 21.073C111.552 22.0083 112.433 23.304 112.863 24.96H108.516ZM130.368 33.148H124.342L123.376 36H119.259L125.101 19.854H129.655L135.497 36H131.334L130.368 33.148ZM129.356 30.112L127.355 24.201L125.377 30.112H129.356ZM153.89 19.854V23.005H149.612V36H145.679V23.005H141.401V19.854H153.89ZM164.797 23.005V26.271H170.064V29.307H164.797V32.849H170.754V36H160.864V19.854H170.754V23.005H164.797ZM199.796 19.854V23.005H195.518V36H191.585V23.005H187.307V19.854H199.796ZM214.406 36.161C212.888 36.161 211.493 35.8083 210.22 35.103C208.963 34.3977 207.959 33.4163 207.207 32.159C206.471 30.8863 206.103 29.4603 206.103 27.881C206.103 26.3017 206.471 24.8833 207.207 23.626C207.959 22.3687 208.963 21.3873 210.22 20.682C211.493 19.9767 212.888 19.624 214.406 19.624C215.924 19.624 217.312 19.9767 218.569 20.682C219.842 21.3873 220.839 22.3687 221.559 23.626C222.295 24.8833 222.663 26.3017 222.663 27.881C222.663 29.4603 222.295 30.8863 221.559 32.159C220.823 33.4163 219.827 34.3977 218.569 35.103C217.312 35.8083 215.924 36.161 214.406 36.161ZM214.406 32.573C215.694 32.573 216.722 32.1437 217.488 31.285C218.27 30.4263 218.661 29.2917 218.661 27.881C218.661 26.455 218.27 25.3203 217.488 24.477C216.722 23.6183 215.694 23.189 214.406 23.189C213.103 23.189 212.06 23.6107 211.278 24.454C210.512 25.2973 210.128 26.4397 210.128 27.881C210.128 29.307 210.512 30.4493 211.278 31.308C212.06 32.1513 213.103 32.573 214.406 32.573ZM239.212 36L233.784 28.87V36H229.851V19.854H233.784V26.938L239.166 19.854H243.789L237.533 27.766L244.019 36H239.212ZM254.822 23.005V26.271H260.089V29.307H254.822V32.849H260.779V36H250.889V19.854H260.779V23.005H254.822ZM282.776 36H278.843L272.265 26.041V36H268.332V19.854H272.265L278.843 29.859V19.854H282.776V36Z" fill="#111029"/>
<ellipse cx="42.9919" cy="25" rx="24.4008" ry="25" fill="#4C40F7"/>
<path fill-rule="evenodd" clip-rule="evenodd" d="M31.0621 20.3181L39.8401 37.4403H43.2641L31.0621 20.3181Z" fill="white"/>
<path fill-rule="evenodd" clip-rule="evenodd" d="M26.1437 12.8235L46.5011 37.4407H53.4737L26.1437 12.8235Z" fill="white"/>
<path d="M36.9759 17.9274C38.42 17.9274 39.5906 16.7125 39.5906 15.2137C39.5906 13.715 38.42 12.5 36.9759 12.5C35.5319 12.5 34.3612 13.715 34.3612 15.2137C34.3612 16.7125 35.5319 17.9274 36.9759 17.9274Z" fill="white"/>
<path fill-rule="evenodd" clip-rule="evenodd" d="M32.9918 28.0073L34.3614 26.1335L34.7349 26.4566L32.9918 28.0073Z" fill="white"/>
<path fill-rule="evenodd" clip-rule="evenodd" d="M37.1631 22.9027C41.853 18.423 46.3146 16.1831 50.548 16.1831C54.7813 16.1831 56.898 18.5091 56.898 23.1612C56.6695 27.3825 54.9681 31.6254 51.7931 35.8898C51.7931 35.8898 54.9059 31.2377 54.9059 27.0703C54.9059 22.9027 51.8493 22.192 50.2367 22.192C48.6241 22.192 44.696 23.0966 41.3342 26.3918C39.0931 28.5886 38.5846 28.2871 39.809 25.4872C44.3635 21.8259 48.2752 19.9952 51.544 19.9952C51.9186 19.9952 52.4374 20.0383 53.1004 20.1245C52.5995 19.4783 51.5412 19.1553 49.9254 19.1553C47.5018 19.1553 43.5754 19.9952 38.2837 23.7427" fill="white"/>
<path fill-rule="evenodd" clip-rule="evenodd" d="M35.9802 29.4285C33.4071 32.5729 31.7677 35.2436 31.0621 37.4404C32.3487 37.4404 33.2825 37.4404 33.8636 37.4404C34.1956 35.7605 35.2332 33.5852 36.9763 30.9146" fill="white"/>
</g>
<defs>
<clipPath id="clip0">
<rect width="287" height="50" fill="white"/>
</clipPath>
</defs>
</svg>
