<svg width="70" height="70" viewBox="0 0 70 70" fill="none" xmlns="http://www.w3.org/2000/svg">
<circle cx="35" cy="35" r="35" fill="#4C40F7"/>
<path fill-rule="evenodd" clip-rule="evenodd" d="M17.8877 28.4456L30.4786 52.4167H35.39L17.8877 28.4456Z" fill="white"/>
<path fill-rule="evenodd" clip-rule="evenodd" d="M10.833 17.9529L40.0332 52.417H50.0345L10.833 17.9529Z" fill="white"/>
<path d="M26.3706 25.0984C28.4419 25.0984 30.1211 23.3974 30.1211 21.2992C30.1211 19.201 28.4419 17.5 26.3706 17.5C24.2993 17.5 22.6201 19.201 22.6201 21.2992C22.6201 23.3974 24.2993 25.0984 26.3706 25.0984Z" fill="white"/>
<path fill-rule="evenodd" clip-rule="evenodd" d="M20.6558 39.2101L22.6203 36.5869L23.156 37.0392L20.6558 39.2101Z" fill="white"/>
<path fill-rule="evenodd" clip-rule="evenodd" d="M26.6387 32.0638C33.3657 25.7921 39.7653 22.6562 45.8376 22.6562C51.9098 22.6562 54.9459 25.9127 54.9459 32.4256C54.6182 38.3355 52.1777 44.2755 47.6235 50.2457C47.6235 50.2457 52.0884 43.7328 52.0884 37.8983C52.0884 32.0638 47.7041 31.0688 45.3911 31.0688C43.0781 31.0688 37.4436 32.3351 32.6216 36.9485C29.4069 40.024 28.6776 39.6018 30.4338 35.682C36.9667 30.5562 42.5776 27.9932 47.2663 27.9932C47.8036 27.9932 48.5477 28.0535 49.4988 28.1741C48.7802 27.2695 47.2622 26.8173 44.9446 26.8173C41.4682 26.8173 35.8363 27.9932 28.246 33.2397" fill="white"/>
<path fill-rule="evenodd" clip-rule="evenodd" d="M24.9421 41.1995C21.2512 45.6017 18.8997 49.3406 17.8877 52.4161C19.7332 52.4161 21.0726 52.4161 21.906 52.4161C22.3823 50.0643 23.8706 47.0189 26.3709 43.28" fill="white"/>
</svg>
